<svg xmlns="http://www.w3.org/2000/svg" viewBox="0 0 269.83 65.15"><defs><style>.cls-1{fill:#fff;}</style></defs><g id="Layer_2" data-name="Layer 2"><g id="TYPE_D" data-name="TYPE D"><polygon class="cls-1" points="53.05 28.24 53.05 39.93 42.61 47.71 42.61 56.3 60.24 43.88 60.18 23.09 53.05 28.24"/><polygon class="cls-1" points="7.97 20.92 34.61 2.98 26.95 0 0 17.68 0 51.28 7.97 54.22 7.97 20.92"/><polygon class="cls-1" points="22.14 26.2 48.57 8 39.85 4.75 13.28 23.14 13.28 56.19 22.14 59.76 22.14 26.2"/><polygon class="cls-1" points="53.91 9.94 27.68 28.55 27.68 61.74 36.42 65.15 36.42 31.67 62.63 13.22 53.91 9.94"/><rect class="cls-1" x="138.36" y="15.02" width="9.9" height="35.14"/><polygon class="cls-1" points="230.99 15 194.81 15 194.81 23.6 208.2 23.6 208.2 50.17 217.61 50.17 217.61 23.6 230.99 23.6 230.99 15"/><polygon class="cls-1" points="154.29 50.01 164.37 50.01 169.69 42.92 164.92 36.3 154.29 50.01"/><polygon class="cls-1" points="190.54 15.05 180.41 15.05 172.66 25.45 164.82 15.02 154.32 15.03 179.76 50.07 191.17 50.07 177.54 31.94 190.54 15.05"/><polygon class="cls-1" points="252.08 14.89 252.1 14.85 252.06 14.85 243.01 14.85 242.97 14.85 242.99 14.89 227.63 50.05 237.91 50.05 240.27 44.05 252.42 44.05 248.44 35.46 243.66 35.46 247.89 24.74 259.55 50.05 269.83 50.05 252.08 14.89"/><polygon class="cls-1" points="89.9 15 89.9 50.3 99.97 50.3 100.01 50.3 100.01 23.4 121.72 23.4 121.72 35.5 103.3 35.5 109.56 43.82 130.71 43.82 130.71 15.02 89.9 15"/></g></g></svg>