<?xml version="1.0" encoding="UTF-8" standalone="no"?>
<!-- Created with Inkscape (http://www.inkscape.org/) -->

<svg
   version="1.1"
   id="svg2"
   xml:space="preserve"
   width="1048.16"
   height="453.04001"
   viewBox="0 0 1048.16 453.04001"
   sodipodi:docname="2202_w037_n003_186a_p1_186.eps"
   xmlns:inkscape="http://www.inkscape.org/namespaces/inkscape"
   xmlns:sodipodi="http://sodipodi.sourceforge.net/DTD/sodipodi-0.dtd"
   xmlns="http://www.w3.org/2000/svg"
   xmlns:svg="http://www.w3.org/2000/svg"><defs
     id="defs6" /><sodipodi:namedview
     id="namedview4"
     pagecolor="#ffffff"
     bordercolor="#666666"
     borderopacity="1.0"
     inkscape:pageshadow="2"
     inkscape:pageopacity="0.0"
     inkscape:pagecheckerboard="0" /><g
     id="g8"
     inkscape:groupmode="layer"
     inkscape:label="ink_ext_XXXXXX"
     transform="matrix(1.3333333,0,0,-1.3333333,0,453.04)"><g
       id="g10"
       transform="scale(0.1)"><path
         d="M 7861.23,59.0703 C 7861.23,26.4414 6113.15,0.0117188 3956.78,0.0117188 1800.41,0.0117188 52.3203,26.4414 52.3203,59.0703 c 0,32.6211 1748.0897,59.0587 3904.4597,59.0587 2156.37,0 3904.45,-26.4376 3904.45,-59.0587"
         style="fill:#e0dfe5;fill-opacity:1;fill-rule:nonzero;stroke:none"
         id="path12" /><path
         d="m 3733.64,3114.1 v -905.9 c 0,-81.4 -65.99,-147.29 -147.3,-147.29 H 1881.25 c -81.41,0 -147.3,65.89 -147.3,147.29 v 905.9 c 0,81.3 65.89,147.3 147.3,147.3 h 1705.09 c 81.31,0 147.3,-66 147.3,-147.3"
         style="fill:#c7bfce;fill-opacity:1;fill-rule:nonzero;stroke:none"
         id="path14" /><path
         d="m 3733.64,3066.4 v -10 H 1733.95 v 10 h 1999.69"
         style="fill:#e0dfe5;fill-opacity:1;fill-rule:nonzero;stroke:none"
         id="path16" /><path
         d="m 3733.64,2859.7 v -10 H 1737.25 c -1.31,0 -2.41,0.5 -3.3,1.3 v 7.41 c 0.89,0.8 1.99,1.29 3.3,1.29 h 1996.39"
         style="fill:#e0dfe5;fill-opacity:1;fill-rule:nonzero;stroke:none"
         id="path18" /><path
         d="m 3733.64,2665 v -9.4 c -0.49,-0.2 -1.1,-0.3 -1.7,-0.3 H 1733.95 v 10 h 1997.99 c 0.6,0 1.21,-0.1 1.7,-0.3"
         style="fill:#e0dfe5;fill-opacity:1;fill-rule:nonzero;stroke:none"
         id="path20" /><path
         d="m 3733.64,2458.61 v -10 H 1735.55 c -0.6,0 -1.11,0.09 -1.6,0.29 v 9.4 c 0.49,0.2 1,0.31 1.6,0.31 h 1998.09"
         style="fill:#e0dfe5;fill-opacity:1;fill-rule:nonzero;stroke:none"
         id="path22" /><path
         d="m 3733.64,2251.71 v -9.4 c -0.49,-0.2 -1.1,-0.31 -1.7,-0.31 H 1733.95 v 10 h 1997.99 c 0.6,0 1.21,-0.09 1.7,-0.29"
         style="fill:#e0dfe5;fill-opacity:1;fill-rule:nonzero;stroke:none"
         id="path24" /><path
         d="M 1942.94,3261.4 V 2060.91 h -10 V 3261.4 h 10"
         style="fill:#e0dfe5;fill-opacity:1;fill-rule:nonzero;stroke:none"
         id="path26" /><path
         d="M 2149.55,3261.4 V 2060.91 h -10 V 3261.4 h 10"
         style="fill:#e0dfe5;fill-opacity:1;fill-rule:nonzero;stroke:none"
         id="path28" /><path
         d="M 2344.05,3261.4 V 2060.91 h -10 V 3261.4 h 10"
         style="fill:#e0dfe5;fill-opacity:1;fill-rule:nonzero;stroke:none"
         id="path30" /><path
         d="M 2550.65,3261.4 V 2060.91 h -10 V 3261.4 h 10"
         style="fill:#e0dfe5;fill-opacity:1;fill-rule:nonzero;stroke:none"
         id="path32" /><path
         d="M 2757.34,3261.4 V 2060.91 h -10 V 3261.4 h 10"
         style="fill:#e0dfe5;fill-opacity:1;fill-rule:nonzero;stroke:none"
         id="path34" /><path
         d="M 2958.44,3261.4 V 2060.91 h -10 V 3261.4 h 10"
         style="fill:#e0dfe5;fill-opacity:1;fill-rule:nonzero;stroke:none"
         id="path36" /><path
         d="M 3165.15,3261.4 V 2060.91 h -10 V 3261.4 h 10"
         style="fill:#e0dfe5;fill-opacity:1;fill-rule:nonzero;stroke:none"
         id="path38" /><path
         d="M 3359.55,3261.4 V 2060.91 h -10 V 3261.4 h 10"
         style="fill:#e0dfe5;fill-opacity:1;fill-rule:nonzero;stroke:none"
         id="path40" /><path
         d="M 3566.25,3261.4 V 2060.91 h -10 V 3261.4 h 10"
         style="fill:#e0dfe5;fill-opacity:1;fill-rule:nonzero;stroke:none"
         id="path42" /><path
         d="M 4113.9,1680.44 H 2659.04 c -25.66,0 -46.45,20.79 -46.45,46.44 v 816.84 c 0,25.66 20.79,46.45 46.45,46.45 H 4113.9 c 25.65,0 46.44,-20.79 46.44,-46.45 v -816.84 c 0,-25.65 -20.79,-46.44 -46.44,-46.44"
         style="fill:#a37b90;fill-opacity:1;fill-rule:nonzero;stroke:none"
         id="path44" /><path
         d="m 3008.94,1839.58 h -91.05 v 249.88 h 91.05 v -249.88"
         style="fill:#e0dfe5;fill-opacity:1;fill-rule:nonzero;stroke:none"
         id="path46" /><path
         d="m 3841.7,1839.58 h -91.04 v 249.88 h 91.04 v -249.88"
         style="fill:#e0dfe5;fill-opacity:1;fill-rule:nonzero;stroke:none"
         id="path48" /><path
         d="m 3217.13,1840.48 h -91.05 v 377.62 h 91.05 v -377.62"
         style="fill:#e0dfe5;fill-opacity:1;fill-rule:nonzero;stroke:none"
         id="path50" /><path
         d="m 3425.32,1840.48 h -91.04 v 486.3 h 91.04 v -486.3"
         style="fill:#e0dfe5;fill-opacity:1;fill-rule:nonzero;stroke:none"
         id="path52" /><path
         d="m 3633.52,1838.47 h -91.05 v 593.67 h 91.05 v -593.67"
         style="fill:#e0dfe5;fill-opacity:1;fill-rule:nonzero;stroke:none"
         id="path54" /><path
         d="m 2187.9,2854.7 c 0,-26.7 -21.65,-48.35 -48.35,-48.35 -26.71,0 -48.36,21.65 -48.36,48.35 0,26.71 21.65,48.36 48.36,48.36 26.7,0 48.35,-21.65 48.35,-48.36"
         style="fill:#5c69a5;fill-opacity:1;fill-rule:nonzero;stroke:none"
         id="path56" /><path
         d="m 2387.4,2448.61 c 0,-26.72 -21.65,-48.36 -48.35,-48.36 -26.71,0 -48.36,21.64 -48.36,48.36 0,26.7 21.65,48.35 48.36,48.35 26.7,0 48.35,-21.65 48.35,-48.35"
         style="fill:#5c69a5;fill-opacity:1;fill-rule:nonzero;stroke:none"
         id="path58" /><path
         d="m 3208.5,2849.7 c 0,-26.7 -21.65,-48.35 -48.35,-48.35 -26.71,0 -48.36,21.65 -48.36,48.35 0,26.71 21.65,48.36 48.36,48.36 26.7,0 48.35,-21.65 48.35,-48.36"
         style="fill:#5c69a5;fill-opacity:1;fill-rule:nonzero;stroke:none"
         id="path60" /><path
         d="M 6770.8,2905.95 V 2227.6 c 0,-21.26 -17.27,-38.53 -38.53,-38.53 h -1208.3 c -4.82,0 -9.39,0.91 -13.62,2.57 -1.99,0.67 -3.9,1.58 -5.73,2.66 -11.54,6.73 -19.19,19.1 -19.19,33.3 v 678.35 c 0,21.35 17.28,38.62 38.54,38.62 h 1208.3 c 21.26,0 38.53,-17.27 38.53,-38.62"
         style="fill:#e0dfe5;fill-opacity:1;fill-rule:nonzero;stroke:none"
         id="path62" /><path
         d="m 6770.8,2249.28 v -21.68 c 0,-21.26 -17.27,-38.53 -38.53,-38.53 H 5526.8 c -5.73,0 -11.38,0.91 -16.45,2.57 -1.99,0.58 -3.98,1.33 -5.82,2.16 l 0.09,0.5 9.55,50.74 257.12,365.26 60.46,-99.17 181.63,260.7 181.88,-245.16 34.3,57.8 154.97,-167.27 30.31,30.74 157.13,-132.8 33.06,65.94 114.03,-122.67 12.71,41.03 39.03,-50.16"
         style="fill:#a37b90;fill-opacity:1;fill-rule:nonzero;stroke:none"
         id="path64" /><path
         d="M 6685.84,2189.07 H 5523.97 c -7.06,0 -13.78,1.91 -19.44,5.31 -11.45,6.65 -19.1,19.02 -19.1,33.22 v 46.26 l 212.44,386.52 52.82,-110.96 158.64,291.67 158.86,-274.31 29.98,64.7 135.38,-187.2 26.49,34.38 137.28,-148.58 28.82,73.84 99.66,-137.28 11.05,45.92 148.99,-123.49"
         style="fill:#c7bfce;fill-opacity:1;fill-rule:nonzero;stroke:none"
         id="path66" /><path
         d="m 5730.23,2653.12 c 0,-17.87 -14.5,-32.37 -32.37,-32.37 -17.87,0 -32.36,14.5 -32.36,32.37 0,17.87 14.49,32.36 32.36,32.36 17.87,0 32.37,-14.49 32.37,-32.36"
         style="fill:#ffffff;fill-opacity:1;fill-rule:nonzero;stroke:none"
         id="path68" /><path
         d="m 6298.29,2478.63 c 0,-17.88 -14.49,-32.36 -32.36,-32.36 -17.87,0 -32.36,14.48 -32.36,32.36 0,17.87 14.49,32.36 32.36,32.36 17.87,0 32.36,-14.49 32.36,-32.36"
         style="fill:#ffffff;fill-opacity:1;fill-rule:nonzero;stroke:none"
         id="path70" /><path
         d="m 6130.53,2646.36 c 0,-17.88 -14.48,-32.36 -32.36,-32.36 -17.88,0 -32.36,14.48 -32.36,32.36 0,17.87 14.48,32.36 32.36,32.36 17.88,0 32.36,-14.49 32.36,-32.36"
         style="fill:#ffffff;fill-opacity:1;fill-rule:nonzero;stroke:none"
         id="path72" /><path
         d="m 5941.66,2841.08 c 0,-17.87 -14.49,-32.37 -32.36,-32.37 -17.87,0 -32.37,14.5 -32.37,32.37 0,17.87 14.5,32.36 32.37,32.36 17.87,0 32.36,-14.49 32.36,-32.36"
         style="fill:#ffffff;fill-opacity:1;fill-rule:nonzero;stroke:none"
         id="path74" /><path
         d="m 6462.01,2403.92 c 0,-17.88 -14.48,-32.37 -32.36,-32.37 -17.87,0 -32.35,14.49 -32.35,32.37 0,17.87 14.48,32.36 32.35,32.36 17.88,0 32.36,-14.49 32.36,-32.36"
         style="fill:#ffffff;fill-opacity:1;fill-rule:nonzero;stroke:none"
         id="path76" /><path
         d="m 5203.69,2835.71 c -91.02,92.31 -95.74,237.65 -14.37,335.33 5.1,6.32 10.71,12.44 16.69,18.4 46.88,46.21 107.27,70.17 168.32,71.87 7.67,0.19 15.32,0.12 23.04,-0.47 1.04,0.02 2.21,0.02 3.24,-0.09 2.96,-0.2 6.03,-0.54 9.11,-0.88 5.12,-0.57 10.24,-1.26 15.2,-2.2 4.97,-0.81 9.79,-1.86 14.6,-2.91 0.63,-0.2 1.13,-0.25 1.77,-0.45 3.92,-0.95 7.82,-2.03 11.71,-3.24 0.25,-0.03 0.51,-0.06 0.62,-0.2 2.27,-0.64 4.52,-1.41 6.77,-2.17 1.03,-0.12 1.9,-0.47 2.75,-0.96 5.39,-1.76 10.73,-3.9 16.06,-6.18 3.35,-1.41 6.56,-2.8 9.9,-4.34 2.11,-0.88 4.2,-1.89 6.15,-3.01 1.97,-1 4.07,-2.01 6.02,-3.13 3.92,-2.12 7.82,-4.37 11.58,-6.73 4.49,-2.83 8.97,-5.79 13.43,-8.88 11.8,-8.31 22.96,-17.71 33.46,-28.34 75.97,-77.03 91.7,-190.88 47.78,-283.09 -12.04,-25.66 -28.84,-49.63 -50.1,-70.65 -98.29,-96.98 -256.62,-95.99 -353.73,2.32"
         style="fill:#f7b369;fill-opacity:1;fill-rule:nonzero;stroke:none"
         id="path78" /><path
         d="m 5607.55,2903.97 -225.85,107.45 46.04,193.32 51.5,36.88 c 16.37,-6.86 32.19,-15.53 46.98,-26.12 11.81,-8.28 22.96,-17.75 33.47,-28.4 76.01,-77.01 91.79,-190.84 47.86,-283.13"
         style="fill:#a37b90;fill-opacity:1;fill-rule:nonzero;stroke:none"
         id="path80" /><path
         d="m 5381.66,3011.49 -192.34,159.55 c 5.1,6.32 10.71,12.44 16.69,18.4 46.88,46.21 107.27,70.17 168.32,71.87 7.67,0.19 15.32,0.12 23.04,-0.47 l -15.71,-249.35"
         style="fill:#40507f;fill-opacity:1;fill-rule:nonzero;stroke:none"
         id="path82" /><path
         d="m 5381.66,3011.49 -7.33,249.82 c 7.67,0.19 15.32,0.12 23.04,-0.47 1.04,0.02 2.08,0.03 3.24,-0.09 2.96,-0.2 6.03,-0.54 9.11,-0.88 5.12,-0.57 10.24,-1.26 15.2,-2.2 4.97,-0.81 9.79,-1.86 14.6,-2.91 0.63,-0.2 1.13,-0.25 1.77,-0.45 3.92,-0.95 7.82,-2.03 11.71,-3.24 0.25,-0.03 0.51,-0.06 0.62,-0.2 2.27,-0.64 4.52,-1.41 6.77,-2.17 1.03,-0.12 1.9,-0.47 2.75,-0.96 8.89,-2.92 17.46,-6.46 25.96,-10.52 2.11,-0.88 4.2,-1.89 6.15,-3.01 1.97,-1 4.07,-2.01 6.02,-3.13 3.92,-2.12 7.82,-4.37 11.58,-6.73 4.49,-2.83 8.97,-5.79 13.43,-8.88 l -144.62,-203.98"
         style="fill:#92b4ea;fill-opacity:1;fill-rule:nonzero;stroke:none"
         id="path84" /><path
         d="m 1139.77,1966.69 c 0,0 188.01,237.46 199.73,221.63 11.72,-15.83 -169.76,-236.83 -169.76,-236.83 l -29.97,15.2"
         style="fill:#5c69a5;fill-opacity:1;fill-rule:nonzero;stroke:none"
         id="path86" /><path
         d="m 995.051,1831.37 c 0,0 68.529,-1.11 98.709,25.71 30.17,26.82 -33.1,88.78 -33.1,88.78 l -65.609,-44.54 v -69.95"
         style="fill:#f48462;fill-opacity:1;fill-rule:nonzero;stroke:none"
         id="path88" /><path
         d="m 1088.49,1978.04 c 8.23,5.76 17.97,8.86 27.93,10.16 33.69,4.42 130.27,0.07 142.12,-33.85 11.35,-32.51 -42.38,-31.76 -42.38,-31.76 0,0 43.17,-9.25 26.8,-36.52 -13.67,-22.76 -41.82,-18.09 -41.82,-18.09 0,0 43.98,-13.94 11.91,-40.11 -32.07,-26.18 -131.15,-13.13 -161.43,3.66 -30.3,16.8 12.3,45.92 12.3,45.92 0,0 -30.28,22.41 -20.84,40.72 9.99,19.39 39.78,13.36 39.78,13.36 0,0 -23.98,25.8 5.63,46.51"
         style="fill:#f48462;fill-opacity:1;fill-rule:nonzero;stroke:none"
         id="path90" /><path
         d="m 969.805,1990.75 c 0,0 123.055,60.15 146.015,56.71 22.95,-3.43 108.59,-76.03 87.64,-95.97 -20.95,-19.94 -87.64,31.49 -87.64,31.49 0,0 -68.44,-114.86 -113.35,-101.89 -44.911,12.97 -32.665,109.66 -32.665,109.66"
         style="fill:#f48462;fill-opacity:1;fill-rule:nonzero;stroke:none"
         id="path92" /><path
         d="m 2362.14,58.5703 c -4.91,0 -9.75,2.3281 -12.78,6.6602 L 1750.7,921.93 1140.52,65.1094 c -4.98,-7.0078 -14.71,-8.6485 -21.73,-3.6485 -7.01,4.9883 -8.65,14.7305 -3.66,21.7383 L 1738.13,958 c 2.94,4.129 7.73,6.5 12.76,6.551 5.07,-0.031 9.8,-2.512 12.7,-6.66 L 2374.9,83.082 c 4.93,-7.0507 3.21,-16.7617 -3.84,-21.7031 -2.72,-1.8984 -5.83,-2.8086 -8.92,-2.8086"
         style="fill:#40507f;fill-opacity:1;fill-rule:nonzero;stroke:none"
         id="path94" /><path
         d="m 1216.17,1919.08 c -0.19,0 -122.6,6.31 -122.6,6.31 -1.94,0.1 -3.43,1.76 -3.33,3.69 0.1,1.94 1.75,3.61 3.69,3.33 l 122.41,-6.3 c 1.94,-0.11 3.43,-1.76 3.33,-3.7 -0.1,-1.87 -1.65,-3.33 -3.5,-3.33"
         style="fill:#000000;fill-opacity:1;fill-rule:nonzero;stroke:none"
         id="path96" /><path
         d="m 1201.14,1864.46 c -0.22,0.01 -122.97,7.84 -122.97,7.84 -1.94,0.12 -3.41,1.79 -3.28,3.73 0.12,1.94 1.79,3.47 3.73,3.28 l 122.74,-7.83 c 1.94,-0.12 3.41,-1.79 3.28,-3.73 -0.11,-1.86 -1.66,-3.29 -3.5,-3.29"
         style="fill:#000000;fill-opacity:1;fill-rule:nonzero;stroke:none"
         id="path98" /><path
         d="m 189.707,2457.44 c -3.519,3.44 -112.6367,-44.08 -134.6328,-189.28 -22.0039,-145.19 95.0348,-171.6 95.0348,-171.6 l 160.996,90.64 -62.027,276.62 -59.371,-6.38"
         style="fill:#000000;fill-opacity:1;fill-rule:nonzero;stroke:none"
         id="path100" /><path
         d="m 539.086,2230.67 c 0,0 63.121,-94.11 207.656,-178.32 103.785,-60.48 264.368,-38.43 264.368,-38.43 l 13.71,-217.95 c 0,0 -349.203,-120.18 -484.101,31.69 -173.938,195.82 -1.633,403.01 -1.633,403.01"
         style="fill:#a37b90;fill-opacity:1;fill-rule:nonzero;stroke:none"
         id="path102" /><path
         d="m 522.129,508.09 c 0,0 69.117,-96.969 71.812,-115.899 2.692,-18.921 -50.168,-53.152 -50.168,-53.152 L 671.137,180.512 H 388.848 l -13.856,305.898 147.137,21.68"
         style="fill:#35456d;fill-opacity:1;fill-rule:nonzero;stroke:none"
         id="path104" /><path
         d="m 337.063,2588.99 c 0,0 -107.711,49.84 -155.946,-38.58 -46.824,-85.85 22.512,-165.59 22.512,-165.59 l 118.965,123.79 14.469,80.38"
         style="fill:#000000;fill-opacity:1;fill-rule:nonzero;stroke:none"
         id="path106" /><path
         d="m 427.727,216.031 -212.809,4.879 5.609,244.731 212.813,-4.871 -5.613,-244.739"
         style="fill:#f48462;fill-opacity:1;fill-rule:nonzero;stroke:none"
         id="path108" /><path
         d="m 198.32,1609.11 c 0,0 -39.086,-139.09 -41.332,-412.27 -1.941,-235.86 -45.468,-759.219 -27.73,-784.051 17.738,-24.828 379.613,-10.641 393.805,-3.551 14.195,7.094 17.738,170.293 17.738,170.293 0,0 241.25,404.449 273.179,471.849 31.93,67.42 -177.386,655.02 -177.386,655.02 L 198.32,1609.11"
         style="fill:#92b4ea;fill-opacity:1;fill-rule:nonzero;stroke:none"
         id="path110" /><path
         d="m 281.813,2273.18 c 0,0 -170.293,-62.25 -191.5786,-157.26 -21.2891,-95.01 127.7186,-475.04 166.7426,-488.15 39.031,-13.11 351.234,55.69 379.617,78.63 28.379,22.93 -3.551,258.81 -10.645,291.58 -7.097,32.76 -35.48,163.8 -74.504,219.5 -39.027,55.7 -70.957,59.38 -109.98,59.38 -39.027,0 -159.652,-3.68 -159.652,-3.68"
         style="fill:#a37b90;fill-opacity:1;fill-rule:nonzero;stroke:none"
         id="path112" /><path
         d="m 252.172,2287.57 c 0,0 -32.156,-10.54 -41.906,-25.51 -10.934,-16.78 9.511,-60.96 67.695,-95.32 42.5,-25.1 78.379,-33.98 78.379,-33.98 0,0 37.004,51.18 44.105,82.3 7.102,31.12 -18.957,71.93 -18.957,71.93 l -129.316,0.58"
         style="fill:#f7b369;fill-opacity:1;fill-rule:nonzero;stroke:none"
         id="path114" /><path
         d="m 249.078,2341.97 9.067,-92.7 c 0,0 19.328,-25.01 73.984,-24.11 40.719,0.67 54.019,11.19 54.019,11.19 l -10.226,46.4 -10.031,45.24 -100.032,11.96 -16.781,2.02"
         style="fill:#f48462;fill-opacity:1;fill-rule:nonzero;stroke:none"
         id="path116" /><path
         d="m 265.859,2339.95 c 0.485,-2.51 1.739,-5.41 3.571,-8.68 25.273,-44.28 82.957,-48.71 106.492,-48.52 l -10.031,45.24 -100.032,11.96"
         style="fill:#000000;fill-opacity:1;fill-rule:nonzero;stroke:none"
         id="path118" /><path
         d="m 365.891,2541.3 c 0,0 60.019,-111.46 47.156,-177.91 -12.859,-66.45 -72.879,-61.09 -109.32,-51.45 -36.442,9.64 -54.661,30.01 -54.661,30.01 0,0 -32.152,-13.93 -56.804,15 -24.649,28.95 -13.93,65.38 4.285,75.03 18.223,9.65 41.805,-2.14 41.805,-2.14 l -20.368,32.15 c 0,0 60.02,176.84 147.907,79.31"
         style="fill:#f48462;fill-opacity:1;fill-rule:nonzero;stroke:none"
         id="path120" /><path
         d="m 228.902,72.5703 c -15.957,0.7578 -28.523,14.5391 -28.578,31.3907 -0.195,66.57 0.684,220.668 12.989,220.699 15.695,0.039 163.832,-46.871 163.832,-46.871 0,0 4.242,92.262 69.32,75.871 49.937,-12.578 107.914,-71.09 132.191,-97.64 7.707,-8.418 17.477,-14.282 28.293,-16.911 C 653.469,227.77 781.445,190.461 783.461,122.75 785.918,39.9805 752.258,49.3398 736.559,49.3008 723.082,49.2695 337.758,67.4297 228.902,72.5703"
         style="fill:#40507f;fill-opacity:1;fill-rule:nonzero;stroke:none"
         id="path122" /><path
         d="m 238.352,2429.84 c 0,0 50.484,-6.43 81.023,51.44 30.547,57.88 25.723,80.38 25.723,80.38 L 383.684,2507 c 0,0 4.824,40.2 -12.864,64.31 -17.679,24.11 -33.757,17.68 -33.757,17.68 l -107.711,-35.36 -22.512,-90.04 31.512,-33.75"
         style="fill:#000000;fill-opacity:1;fill-rule:nonzero;stroke:none"
         id="path124" /><path
         d="m 582.473,1844.86 c 0,0 45.004,56.81 77.918,70.5 16.25,6.76 77.734,18.14 83.398,3.24 5.672,-14.9 -52.812,-47.42 -52.812,-47.42 0,0 142.05,53.66 165.863,42.14 28.66,-13.87 -12.695,-32.23 -12.695,-32.23 0,0 45.761,-2.23 38.41,-17.88 -7.356,-15.64 -35.063,-31.84 -35.063,-31.84 0,0 50.879,8.5 24.031,-27.03 -26.843,-35.54 -242.429,-147.04 -311.019,-86.63 -33.875,29.84 21.969,127.15 21.969,127.15"
         style="fill:#f48462;fill-opacity:1;fill-rule:nonzero;stroke:none"
         id="path126" /><path
         d="m 737.09,1835.63 c -1.402,0 -2.731,0.84 -3.27,2.23 -0.711,1.81 0.184,3.85 1.985,4.55 l 107.058,41.95 c 1.817,0.71 3.848,-0.17 4.555,-1.99 0.707,-1.81 -0.18,-3.84 -1.988,-4.55 l -107.051,-41.95 c -0.43,-0.17 -0.859,-0.24 -1.289,-0.24"
         style="fill:#000000;fill-opacity:1;fill-rule:nonzero;stroke:none"
         id="path128" /><path
         d="m 759.254,1792.46 c -1.399,0 -2.711,0.83 -3.266,2.2 -0.722,1.81 0.149,3.85 1.953,4.58 l 88.235,35.39 c 1.808,0.72 3.844,-0.15 4.578,-1.95 0.715,-1.8 -0.156,-3.85 -1.961,-4.57 l -88.234,-35.4 c -0.43,-0.17 -0.875,-0.25 -1.305,-0.25"
         style="fill:#000000;fill-opacity:1;fill-rule:nonzero;stroke:none"
         id="path130" /><path
         d="m 657.754,1863.02 c -1.727,0 -3.238,1.27 -3.481,3.03 -0.269,1.92 1.075,3.7 2.993,3.97 l 33.218,4.64 c 1.942,0.23 3.7,-1.07 3.977,-2.99 0.262,-1.92 -1.082,-3.7 -3,-3.97 l -33.219,-4.65 c -0.164,-0.02 -0.324,-0.03 -0.488,-0.03"
         style="fill:#000000;fill-opacity:1;fill-rule:nonzero;stroke:none"
         id="path132" /><path
         d="m 106.813,2153.33 c 0,0 -179.1333,-207.47 -73.438,-433.77 94.102,-201.5 315.844,-206.97 429.375,-171.49 113.531,35.48 212.867,127.72 212.867,127.72 l -104.676,183.92 c 0,0 -177.937,-31.21 -291.468,-20.57 -113.532,10.65 -172.66,314.19 -172.66,314.19"
         style="fill:#a37b90;fill-opacity:1;fill-rule:nonzero;stroke:none"
         id="path134" /><path
         d="m 547.961,614.68 c -1.957,0.011 -3.527,1.59 -3.523,3.531 l 2.652,824.339 c 0.004,0.92 0.371,1.81 1.027,2.47 l 80.965,81.23 c 1.367,1.38 3.594,1.37 4.965,0.01 1.379,-1.37 1.379,-3.6 0.012,-4.97 l -79.942,-80.21 -2.648,-822.889 c -0.004,-1.941 -1.574,-3.511 -3.508,-3.511"
         style="fill:#ffffff;fill-opacity:1;fill-rule:nonzero;stroke:none"
         id="path136" /><path
         d="m 215.512,1376.01 c -1.719,0 -3.231,1.27 -3.469,3.03 -0.273,1.92 1.066,3.7 2.988,3.96 34.27,4.79 60.043,18.49 76.602,40.73 27.172,36.49 20.246,84.19 20.176,84.67 -0.301,1.92 1.023,3.71 2.945,4.01 1.961,0.18 3.707,-1.03 3.996,-2.94 0.324,-2.06 7.48,-51 -21.441,-89.89 -17.719,-23.83 -45.071,-38.47 -81.301,-43.53 -0.168,-0.03 -0.332,-0.04 -0.496,-0.04"
         style="fill:#ffffff;fill-opacity:1;fill-rule:nonzero;stroke:none"
         id="path138" /><path
         d="m 225.367,1853.45 c -13.156,0 -25.82,-3.18 -35.293,-12.18 -4.179,-3.97 -4.508,-5.99 -4.277,-6.43 3.594,-6.99 50.738,-3.28 96.234,4.72 -12.519,5.47 -35.254,13.89 -56.664,13.89 z m -17.012,-29.24 c -14.683,0 -26,1.94 -28.808,7.41 -3.227,6.28 3.48,12.65 5.683,14.75 35.836,34.03 106.817,-3.59 109.805,-5.2 1.309,-0.71 2.035,-2.16 1.813,-3.63 -0.231,-1.47 -1.348,-2.64 -2.813,-2.92 -16.324,-3.13 -57.285,-10.41 -85.68,-10.41"
         style="fill:#f7b369;fill-opacity:1;fill-rule:nonzero;stroke:none"
         id="path140" /><path
         d="m 2253.57,932.949 h -836.93 c -29.57,0 -52.95,29.082 -50.89,63.301 l 74.21,1232.25 c 1.86,31.01 24.09,55.06 50.89,55.06 h 836.92 c 29.58,0 52.96,-29.09 50.9,-63.31 L 2304.46,988 c -1.87,-31.012 -24.1,-55.051 -50.89,-55.051"
         style="fill:#bbb0c1;fill-opacity:1;fill-rule:nonzero;stroke:none"
         id="path142" /><path
         d="m 2196.9,932.949 h -836.93 c -29.57,0 -52.95,29.082 -50.89,63.301 l 74.21,1232.25 c 1.86,31.01 24.09,55.06 50.89,55.06 h 836.92 c 29.58,0 52.96,-29.09 50.89,-63.31 L 2247.79,988 c -1.87,-31.012 -24.1,-55.051 -50.89,-55.051"
         style="fill:#e0dfe5;fill-opacity:1;fill-rule:nonzero;stroke:none"
         id="path144" /><path
         d="m 2019.82,1925.91 c -6.27,-112.82 -102.82,-204.28 -215.64,-204.28 -112.82,0 -199.19,91.46 -192.92,204.28 6.27,112.83 102.81,204.29 215.63,204.29 112.82,0 199.2,-91.46 192.93,-204.29"
         style="fill:#a37b90;fill-opacity:1;fill-rule:nonzero;stroke:none"
         id="path146" /><path
         d="m 1937.44,2130.2 -121.9,-204.29 220.9,59.37 z"
         style="fill:#92b4ea;fill-opacity:1;fill-rule:nonzero;stroke:none"
         id="path148" /><path
         d="m 1632.4,1185.36 h -98.41 l 23.43,299.87 h 98.42 l -23.44,-299.87"
         style="fill:#5c69a5;fill-opacity:1;fill-rule:nonzero;stroke:none"
         id="path150" /><path
         d="m 1824.55,1185.36 h -98.42 l 18.85,245.37 h 98.42 l -18.85,-245.37"
         style="fill:#5c69a5;fill-opacity:1;fill-rule:nonzero;stroke:none"
         id="path152" /><path
         d="m 2021.38,1185.36 h -98.42 l 15.06,169.2 h 98.42 l -15.06,-169.2"
         style="fill:#5c69a5;fill-opacity:1;fill-rule:nonzero;stroke:none"
         id="path154" /><path
         d="m 2117.45,1181.84 h -681.88 c -0.97,0 -1.91,0.41 -2.57,1.13 -0.67,0.72 -1.01,1.68 -0.93,2.65 l 25.77,338.41 c 0.16,1.94 1.88,3.51 3.78,3.24 1.93,-0.14 3.39,-1.83 3.23,-3.77 l -25.48,-334.63 h 678.08 c 1.94,0 3.51,-1.57 3.51,-3.51 0,-1.95 -1.57,-3.52 -3.51,-3.52"
         style="fill:#40507f;fill-opacity:1;fill-rule:nonzero;stroke:none"
         id="path156" /><path
         d="m 383.688,2503.49 c -0.2,0 -0.395,0.02 -0.602,0.05 l -15.531,2.7 c -1.914,0.33 -3.196,2.15 -2.864,4.06 0.332,1.91 2.137,3.21 4.063,2.86 l 15.527,-2.7 c 1.914,-0.33 3.196,-2.14 2.864,-4.06 -0.297,-1.7 -1.782,-2.91 -3.457,-2.91"
         style="fill:#000000;fill-opacity:1;fill-rule:nonzero;stroke:none"
         id="path158" /><path
         d="m 316.195,2498.45 c -1.582,0 -3.015,1.07 -3.402,2.68 -0.457,1.89 0.695,3.78 2.586,4.25 l 26.262,6.39 c 1.863,0.45 3.785,-0.7 4.242,-2.59 0.461,-1.88 -0.695,-3.78 -2.582,-4.24 l -26.27,-6.39 c -0.277,-0.07 -0.554,-0.1 -0.836,-0.1"
         style="fill:#000000;fill-opacity:1;fill-rule:nonzero;stroke:none"
         id="path160" /><path
         d="m 326.02,2439.36 c -1.68,0 -3.165,1.2 -3.457,2.91 l -3.254,18.82 c -0.235,1.35 0.324,2.7 1.445,3.48 l 13.129,9.23 c 1.59,1.1 3.785,0.72 4.898,-0.86 1.117,-1.59 0.731,-3.78 -0.855,-4.9 l -11.313,-7.94 2.875,-16.63 c 0.332,-1.91 -0.949,-3.73 -2.859,-4.06 -0.207,-0.03 -0.406,-0.05 -0.609,-0.05"
         style="fill:#000000;fill-opacity:1;fill-rule:nonzero;stroke:none"
         id="path162" /><path
         d="m 389.395,2453.38 c -1.68,0 -3.165,1.21 -3.457,2.92 l -3.258,18.82 c -0.235,1.34 0.328,2.69 1.449,3.47 l 13.129,9.23 c 1.59,1.11 3.789,0.73 4.894,-0.86 1.121,-1.58 0.735,-3.78 -0.851,-4.89 l -11.317,-7.94 2.879,-16.63 c 0.332,-1.92 -0.953,-3.74 -2.863,-4.07 -0.203,-0.03 -0.406,-0.05 -0.605,-0.05"
         style="fill:#000000;fill-opacity:1;fill-rule:nonzero;stroke:none"
         id="path164" /><path
         d="m 375.918,2401.75 c -0.359,0 -0.73,0.06 -1.094,0.18 -1.844,0.61 -2.851,2.59 -2.238,4.43 7.102,21.68 -7.367,48.58 -7.516,48.85 -0.929,1.7 -0.304,3.84 1.399,4.77 1.679,0.92 3.828,0.31 4.765,-1.39 0.664,-1.21 16.09,-29.82 8.024,-54.41 -0.485,-1.49 -1.86,-2.43 -3.34,-2.43"
         style="fill:#000000;fill-opacity:1;fill-rule:nonzero;stroke:none"
         id="path166" /><path
         d="m 341.504,2371.96 c 2.555,-4.31 7.293,-10.04 14.414,-10.04 7.168,0 11.887,5.73 14.418,10.04 z m 14.414,-17.07 c -16.371,0 -23.055,18.64 -23.328,19.43 -0.379,1.07 -0.211,2.26 0.453,3.19 0.652,0.93 1.723,1.48 2.859,1.48 h 40.016 c 1.137,0 2.207,-0.55 2.867,-1.48 0.66,-0.93 0.824,-2.12 0.453,-3.19 -0.277,-0.79 -6.957,-19.43 -23.32,-19.43"
         style="fill:#000000;fill-opacity:1;fill-rule:nonzero;stroke:none"
         id="path168" /><path
         d="m 242.5,2376.65 c -0.727,0 -1.461,0.22 -2.086,0.69 l -41.809,30.97 c -1.558,1.15 -1.89,3.35 -0.726,4.91 1.141,1.56 3.344,1.9 4.906,0.73 l 41.805,-30.96 c 1.562,-1.16 1.89,-3.36 0.734,-4.92 -0.691,-0.93 -1.75,-1.42 -2.824,-1.42"
         style="fill:#000000;fill-opacity:1;fill-rule:nonzero;stroke:none"
         id="path170" /><path
         d="m 200.699,2371.96 c -1.234,0 -2.433,0.65 -3.07,1.81 -0.949,1.69 -0.332,3.83 1.355,4.78 l 27.493,15.29 c 1.707,0.95 3.836,0.33 4.777,-1.36 0.945,-1.7 0.332,-3.84 -1.359,-4.78 l -27.493,-15.3 c -0.543,-0.3 -1.129,-0.44 -1.703,-0.44"
         style="fill:#000000;fill-opacity:1;fill-rule:nonzero;stroke:none"
         id="path172" /><path
         d="m 254.996,2285.77 c 0,0 50.805,-46.13 87.481,-46.48 36.668,-0.34 35.589,33.73 35.589,33.73 l 14.649,-51.51 -45.348,-45.94 -80.976,32.64 -45.45,50.87 34.055,26.69"
         style="fill:#f7b369;fill-opacity:1;fill-rule:nonzero;stroke:none"
         id="path174" /><path
         d="m 321.23,2167.52 c 0,0 -27.457,-37.57 -33.035,-96.5 -5.582,-58.93 28.633,-125.16 28.633,-125.16 0,0 54.856,62.2 62.117,109.17 7.262,46.95 -17.859,113.62 -17.859,113.62 0,0 24.863,-56.56 31.004,-91.17 6.144,-34.61 14.629,-79.1 14.629,-79.1 0,0 33.285,44.13 31.301,96.51 -1.993,52.39 -58.258,86.8 -58.258,86.8 l -58.532,-14.17"
         style="fill:#f7b369;fill-opacity:1;fill-rule:nonzero;stroke:none"
         id="path176" /><path
         d="m 366.602,2218 c -0.289,0 -0.59,-0.01 -0.914,-0.04 -2.903,-0.24 -4.883,-1.38 -6.223,-3.59 -5.293,-8.69 0.223,-29.93 4.941,-43.58 6.039,16.53 11.598,38.39 6.621,45.26 -0.621,0.86 -1.746,1.95 -4.425,1.95 z m -38.461,-66.37 c -3.707,0 -7.114,0.33 -9.887,1.13 -16.813,4.86 -19.551,44.12 -16.266,60.08 0.395,1.9 2.235,3.13 4.149,2.74 1.906,-0.39 3.125,-2.25 2.742,-4.15 -3.391,-16.46 1.019,-48.94 11.32,-51.91 9.055,-2.61 28.93,1.28 39.406,3.88 -4.21,11.01 -14.414,41.05 -6.144,54.63 2.5,4.12 6.539,6.51 11.652,6.93 6.367,0.55 9.821,-2.31 11.61,-4.79 10.105,-13.98 -7.137,-55.81 -9.137,-60.53 -0.332,-0.79 -0.914,-1.39 -1.617,-1.75 -0.207,-0.11 -0.426,-0.19 -0.656,-0.26 -1.227,-0.34 -21.754,-6 -37.172,-6"
         style="fill:#40507f;fill-opacity:1;fill-rule:nonzero;stroke:none"
         id="path178" /><path
         d="m 334.449,2139.56 c -7.027,-22.39 -13.402,-51.06 -7.832,-59.05 0.828,-1.19 1.594,-1.78 3.399,-1.7 1.675,0 2.925,0.63 4.05,2.03 7.125,8.87 3.856,38.75 0.383,58.72 z m -4.437,-67.78 c -3.879,0.01 -7.028,1.64 -9.16,4.71 -10.957,15.71 8.902,71.61 11.195,77.93 0.543,1.46 1.957,2.38 3.523,2.3 1.559,-0.1 2.864,-1.21 3.203,-2.73 1.418,-6.28 13.446,-61.78 0.778,-77.55 -2.449,-3.05 -5.746,-4.66 -9.539,-4.66"
         style="fill:#40507f;fill-opacity:1;fill-rule:nonzero;stroke:none"
         id="path180" /><path
         d="m 1024.81,1876.55 c -1.51,0 -2.91,0.99 -3.36,2.52 -0.55,1.86 0.51,3.82 2.37,4.37 0.72,0.21 71.74,22.02 88.55,100.27 0.41,1.9 2.28,3.13 4.18,2.7 1.9,-0.41 3.1,-2.28 2.7,-4.17 -17.72,-82.45 -92.69,-105.32 -93.44,-105.55 -0.34,-0.1 -0.67,-0.14 -1,-0.14"
         style="fill:#000000;fill-opacity:1;fill-rule:nonzero;stroke:none"
         id="path182" /><path
         d="m 2746.41,315.82 51.85,75.379 -180.27,121.571 -79.01,-68.09 121,-141.02 86.43,12.16"
         style="fill:#f48462;fill-opacity:1;fill-rule:nonzero;stroke:none"
         id="path184" /><path
         d="m 3097.06,379.039 -2.46,-131.301 232.12,2.434 -9.88,141.027 -219.78,-12.16"
         style="fill:#f48462;fill-opacity:1;fill-rule:nonzero;stroke:none"
         id="path186" /><path
         d="m 2777.59,58.6719 c -5.07,0.6679 -8.48,5.6679 -7.58,10.957 4.23,25.0195 19.27,94.9411 58.85,124.6091 48.64,36.481 150.55,51.071 187.62,75.391 37.06,24.301 78.53,83 100.64,71.891 22.12,-11.11 63.81,-62.18 124.03,-54.879 60.23,7.289 88.02,21.879 104.24,7.289 16.21,-14.59 25.47,-218.8284 18.53,-230.9808 -6.95,-12.1601 -91.78,-0.9297 -99.16,-2.8906 -7.39,-1.9766 -28.24,46.6604 -42.14,39.3633 -13.89,-7.293 -30.85,-30.1133 -51.33,-40.5899 -19.1,-9.7734 -332.97,-8.3125 -393.7,-0.1601"
         style="fill:#a37b90;fill-opacity:1;fill-rule:nonzero;stroke:none"
         id="path188" /><path
         d="m 2947.14,1113.34 28.33,556.79 347.05,2.44 c 0,0 42.49,-143.46 54.3,-282.06 11.8,-138.59 42.49,-1018.772 37.77,-1030.92 -4.72,-12.16 -389.54,-26.75 -413.14,-12.16 -23.61,14.59 -54.31,765.91 -54.31,765.91"
         style="fill:#f7b369;fill-opacity:1;fill-rule:nonzero;stroke:none"
         id="path190" /><path
         d="m 2162.48,441.77 c -3.85,3.39 -3.86,9.429 -0.11,13.3 17.78,18.371 70.16,67.899 120.16,70.418 61.44,3.102 154.98,-41.609 199.81,-42.109 44.83,-0.52 112.92,24.992 125.09,3.453 12.18,-21.523 17.98,-87.043 72.5,-114.562 54.51,-27.52 86.06,-30.93 91.32,-52.04 5.25,-21.109 -103.25,-195.429 -115.98,-201.628 -12.74,-6.192 -77.28,50.367 -84.58,52.859 -7.3,2.488 2.95,54.379 -12.83,56.09 -15.77,1.687 -42.94,-7.75 -66.02,-5.012 -21.55,2.543 -283.21,178.652 -329.36,219.231"
         style="fill:#a37b90;fill-opacity:1;fill-rule:nonzero;stroke:none"
         id="path192" /><path
         d="m 2914.09,1675 c 0,0 -408.42,-1106.309 -403.7,-1130.629 4.72,-24.312 316.35,-196.941 335.24,-196.941 18.89,0 155.82,250.441 155.82,250.441 l 16.52,1074.699 -103.88,2.43"
         style="fill:#f7b369;fill-opacity:1;fill-rule:nonzero;stroke:none"
         id="path194" /><path
         d="m 3094.59,244.23 c -0.69,0 -1.39,0.2 -2,0.622 l -56.37,39.027 c -1.59,1.109 -1.99,3.293 -0.88,4.902 1.11,1.578 3.29,1.981 4.89,0.879 l 56.36,-39.031 c 1.6,-1.098 1.99,-3.289 0.89,-4.887 -0.68,-0.992 -1.78,-1.512 -2.89,-1.512"
         style="fill:#ffffff;fill-opacity:1;fill-rule:nonzero;stroke:none"
         id="path196" /><path
         d="m 3038.22,221.391 c -0.74,0 -1.49,0.238 -2.12,0.718 l -44.29,33.563 c -1.55,1.168 -1.85,3.379 -0.68,4.918 1.17,1.558 3.37,1.859 4.93,0.691 l 44.29,-33.57 c 1.55,-1.172 1.85,-3.379 0.68,-4.922 -0.69,-0.918 -1.75,-1.398 -2.81,-1.398"
         style="fill:#ffffff;fill-opacity:1;fill-rule:nonzero;stroke:none"
         id="path198" /><path
         d="m 2533.05,420.719 c -1.15,0 -2.28,0.57 -2.96,1.601 l -37.36,57.489 c -1.05,1.632 -0.6,3.8 1.04,4.863 1.63,1.047 3.8,0.59 4.86,-1.031 l 37.36,-57.493 c 1.06,-1.628 0.6,-3.796 -1.03,-4.859 -0.59,-0.391 -1.26,-0.57 -1.91,-0.57"
         style="fill:#ffffff;fill-opacity:1;fill-rule:nonzero;stroke:none"
         id="path200" /><path
         d="m 2458.1,437.371 c -1.2,0 -2.37,0.617 -3.03,1.731 l -28.26,47.847 c -0.99,1.672 -0.43,3.832 1.24,4.813 1.68,1 3.83,0.429 4.81,-1.242 l 28.27,-47.848 c 0.98,-1.672 0.42,-3.832 -1.25,-4.813 -0.56,-0.328 -1.17,-0.488 -1.78,-0.488"
         style="fill:#ffffff;fill-opacity:1;fill-rule:nonzero;stroke:none"
         id="path202" /><path
         d="m 3309.3,1509.76 c -62.96,0 -101.39,78.19 -101.81,79.06 -0.84,1.74 -0.11,3.84 1.64,4.68 1.73,0.84 3.84,0.11 4.69,-1.64 0.43,-0.9 43.96,-89.2 112.09,-73.09 1.9,0.46 3.78,-0.74 4.23,-2.61 0.45,-1.9 -0.72,-3.79 -2.61,-4.23 -6.27,-1.48 -12.37,-2.17 -18.23,-2.17"
         style="fill:#40507f;fill-opacity:1;fill-rule:nonzero;stroke:none"
         id="path204" /><path
         d="m 2977.46,549.961 c -2.11,0.098 -3.61,1.75 -3.52,3.68 l 42.96,903.489 -94.06,62.1 c -1.62,1.06 -2.07,3.24 -1,4.86 1.08,1.61 3.25,2.08 4.87,0.99 l 95.74,-63.19 c 1.03,-0.68 1.63,-1.85 1.57,-3.09 l -43.06,-905.491 c -0.08,-1.887 -1.64,-3.348 -3.5,-3.348"
         style="fill:#40507f;fill-opacity:1;fill-rule:nonzero;stroke:none"
         id="path206" /><path
         d="m 3090.86,2263.29 c 0,0 -95.09,-4.31 -132.79,-80.5 -37.69,-76.17 -66.19,-530.22 -66.19,-530.22 0,0 105.43,-46.61 259.29,-44.59 153.86,2.01 205.9,41.87 205.9,41.87 l 29.6,280.01 c 0,0 -12.36,295.11 -50.72,315.81 -38.36,20.7 -181.41,33.99 -245.09,17.62"
         style="fill:#68b6d8;fill-opacity:1;fill-rule:nonzero;stroke:none"
         id="path208" /><path
         d="m 3091.63,2506.89 c 0,0 -48.34,93.59 -2.68,110.4 45.66,16.81 95.83,-35.94 95.83,-35.94 0,0 98.98,-14.69 133.64,-70.21 34.65,-55.51 -63.8,-143.37 -63.8,-143.37 l -162.99,139.12"
         style="fill:#000000;fill-opacity:1;fill-rule:nonzero;stroke:none"
         id="path210" /><path
         d="m 3235.78,2348.59 0.27,-92.01 c 0,0 -16.52,-26.49 -70.33,-31.02 -40.08,-3.38 -54.19,5.65 -54.19,5.65 l 5.45,46.61 5.38,45.45 97.12,21.66 16.3,3.66"
         style="fill:#f48462;fill-opacity:1;fill-rule:nonzero;stroke:none"
         id="path212" /><path
         d="m 3219.48,2344.93 c -0.22,-2.51 -1.17,-5.48 -2.64,-8.88 -20.46,-46.02 -76.71,-56.09 -99.86,-58.23 l 5.38,45.45 97.12,21.66"
         style="fill:#000000;fill-opacity:1;fill-rule:nonzero;stroke:none"
         id="path214" /><path
         d="m 3101.24,2532.92 c 0,0 -47.95,-115.49 -28.73,-179.52 19.22,-64.04 77.68,-52.83 112.53,-39.74 34.86,13.09 50.75,34.91 50.75,34.91 0,0 32.98,-10.51 54.34,20.37 21.36,30.88 7.22,65.63 -11.64,73.31 -18.86,7.68 -40.87,-6.25 -40.87,-6.25 l 16.83,33.62 c 0,0 -76.5,167.86 -153.21,63.3"
         style="fill:#f48462;fill-opacity:1;fill-rule:nonzero;stroke:none"
         id="path216" /><path
         d="m 3241.16,2386.49 c -1.09,0 -2.17,0.5 -2.85,1.46 -1.14,1.57 -0.79,3.77 0.78,4.9 l 41.37,29.93 c 1.58,1.13 3.77,0.78 4.9,-0.78 1.14,-1.58 0.79,-3.78 -0.78,-4.91 l -41.37,-29.93 c -0.62,-0.45 -1.34,-0.67 -2.05,-0.67"
         style="fill:#000000;fill-opacity:1;fill-rule:nonzero;stroke:none"
         id="path218" /><path
         d="m 3278.94,2387.12 c -0.29,0 -0.58,0.03 -0.87,0.1 l -27.32,6.95 c -1.88,0.48 -3.02,2.39 -2.54,4.27 0.48,1.88 2.44,3.02 4.27,2.54 l 27.32,-6.94 c 1.88,-0.48 3.02,-2.39 2.54,-4.27 -0.41,-1.59 -1.84,-2.65 -3.4,-2.65"
         style="fill:#000000;fill-opacity:1;fill-rule:nonzero;stroke:none"
         id="path220" /><path
         d="m 3104.92,2401.35 c -1.71,0 -3.2,1.24 -3.47,2.97 -4.93,31.61 15.59,48.77 16.47,49.48 1.48,1.23 3.7,1 4.93,-0.49 1.23,-1.5 1.01,-3.71 -0.48,-4.94 -0.74,-0.62 -18.26,-15.46 -13.98,-42.96 0.3,-1.92 -1.01,-3.72 -2.93,-4.02 -0.18,-0.03 -0.36,-0.04 -0.54,-0.04"
         style="fill:#000000;fill-opacity:1;fill-rule:nonzero;stroke:none"
         id="path222" /><path
         d="m 3089.72,2447.57 c -0.3,0 -0.61,0.04 -0.92,0.12 -1.87,0.51 -2.98,2.44 -2.48,4.31 l 5.7,21.12 c 0.51,1.87 2.42,2.99 4.32,2.47 1.86,-0.5 2.98,-2.43 2.47,-4.31 l -5.7,-21.12 c -0.42,-1.57 -1.84,-2.59 -3.39,-2.59"
         style="fill:#000000;fill-opacity:1;fill-rule:nonzero;stroke:none"
         id="path224" /><path
         d="m 3147.94,2443.66 c -0.3,0 -0.61,0.04 -0.91,0.12 -1.87,0.51 -2.99,2.44 -2.48,4.31 l 5.7,21.12 c 0.5,1.88 2.4,2.99 4.31,2.48 1.87,-0.51 2.98,-2.44 2.48,-4.31 l -5.7,-21.12 c -0.42,-1.57 -1.84,-2.6 -3.4,-2.6"
         style="fill:#000000;fill-opacity:1;fill-rule:nonzero;stroke:none"
         id="path226" /><path
         d="m 3091.63,2506.89 c 0,0 9.93,18.53 32.88,18.75 22.95,0.23 36.4,-15.9 36.4,-15.9 0,0 -9.96,-38.67 21.31,-59.11 31.27,-20.44 55.4,-14.63 55.4,-14.63 l 22.61,8.14 16.51,33.12 -65.69,70.38 -84.88,44.5 -43.08,-39.34 8.54,-45.91"
         style="fill:#000000;fill-opacity:1;fill-rule:nonzero;stroke:none"
         id="path228" /><path
         d="m 3184.78,2581.35 c 0,0 2.84,50.92 56.38,28.55 53.54,-22.37 49.39,-91.84 49.39,-91.84 l -105.77,63.29"
         style="fill:#000000;fill-opacity:1;fill-rule:nonzero;stroke:none"
         id="path230" /><path
         d="m 3087.38,2502.55 c -1.79,0 -3.33,1.37 -3.5,3.19 -0.18,1.93 1.24,3.64 3.17,3.83 l 17.48,1.64 c 1.86,0.13 3.64,-1.24 3.83,-3.17 0.18,-1.93 -1.25,-3.65 -3.18,-3.83 l -17.47,-1.64 c -0.11,-0.02 -0.22,-0.02 -0.33,-0.02"
         style="fill:#000000;fill-opacity:1;fill-rule:nonzero;stroke:none"
         id="path232" /><path
         d="m 3166,2478.75 c -0.47,0 -0.95,0.09 -1.4,0.3 l -23.6,10.26 c -1.78,0.77 -2.6,2.85 -1.82,4.62 0.78,1.78 2.88,2.59 4.62,1.82 l 23.6,-10.26 c 1.78,-0.77 2.6,-2.85 1.82,-4.62 -0.58,-1.33 -1.87,-2.12 -3.22,-2.12"
         style="fill:#000000;fill-opacity:1;fill-rule:nonzero;stroke:none"
         id="path234" /><path
         d="m 3096.12,2370.17 c -1.16,0 -2.3,0.57 -2.97,1.62 l -13.02,20.42 c -1.05,1.64 -0.57,3.81 1.07,4.86 1.65,1.04 3.81,0.55 4.85,-1.08 l 13.03,-20.42 c 1.05,-1.63 0.56,-3.81 -1.08,-4.85 -0.58,-0.37 -1.24,-0.55 -1.88,-0.55"
         style="fill:#000000;fill-opacity:1;fill-rule:nonzero;stroke:none"
         id="path236" /><path
         d="m 2924.35,2243.87 c 0,0 59.11,193.92 83.74,190.98 24.63,-2.94 73.61,-52.19 83.59,-70.25 9.98,-18.06 0,-41.04 0,-41.04 0,0 9.72,-12.19 0,-20.05 -9.72,-7.86 -37.63,8.83 -37.63,8.83 0,0 24.63,-123.4 -47.6,-138.17 -72.24,-14.77 -82.1,69.7 -82.1,69.7"
         style="fill:#f48462;fill-opacity:1;fill-rule:nonzero;stroke:none"
         id="path238" /><path
         d="m 2961.12,1890.81 c 0,0 29.31,58.07 43.23,122.98 13.92,64.91 33.29,161.82 33.29,161.82 l -127.74,95.02 c 0,0 -106.64,-163.1 -143.83,-318.82 -37.18,-155.71 -9.59,-203.3 69.78,-193.68 94.02,11.39 125.27,132.68 125.27,132.68"
         style="fill:#68b6d8;fill-opacity:1;fill-rule:nonzero;stroke:none"
         id="path240" /><path
         d="m 2972.65,1873.83 -39.84,-154.27 c -31.72,0 -117.15,1.13 -144.12,13.54 -33.41,15.35 -37.81,36.23 -37.81,36.23 0,0 -22.91,21.78 -21.56,33.52 1.25,11.85 14.34,65 14.34,65 0,0 -18.51,43.79 -1.58,46.17 16.81,2.25 46.05,6.31 46.05,6.31 0,0 54.61,23.93 78.2,17.27 23.59,-6.66 86.34,-64.44 86.34,-64.44 l 19.98,0.67"
         style="fill:#f48462;fill-opacity:1;fill-rule:nonzero;stroke:none"
         id="path242" /><path
         d="m 3156.22,2222.3 c -35.67,0 -49.5,8.34 -50.15,8.75 -1.65,1.03 -2.15,3.19 -1.12,4.84 1.02,1.65 3.2,2.17 4.85,1.12 0.14,-0.09 17.46,-10.21 63.75,-7.07 45.98,3.16 67.29,33.66 67.5,33.96 1.08,1.6 3.26,2.01 4.87,0.93 1.61,-1.09 2.03,-3.27 0.94,-4.87 -0.93,-1.37 -23.29,-33.63 -72.84,-37.03 -6.46,-0.44 -12.38,-0.63 -17.8,-0.63"
         style="fill:#5c69a5;fill-opacity:1;fill-rule:nonzero;stroke:none"
         id="path244" /><path
         d="m 2866.8,1906.61 c -0.33,0 -0.67,0.05 -1,0.14 l -59.62,17.61 c -1.86,0.54 -2.93,2.5 -2.38,4.36 0.55,1.86 2.48,2.93 4.37,2.38 l 59.62,-17.61 c 1.86,-0.54 2.93,-2.5 2.38,-4.36 -0.45,-1.53 -1.85,-2.52 -3.37,-2.52"
         style="fill:#000000;fill-opacity:1;fill-rule:nonzero;stroke:none"
         id="path246" /><path
         d="m 2760.08,1865.56 c -0.57,0 -1.14,0.14 -1.68,0.43 l -20.99,11.43 c -1.71,0.93 -2.34,3.06 -1.41,4.76 0.92,1.7 3.05,2.35 4.77,1.41 l 20.99,-11.43 c 1.71,-0.92 2.34,-3.06 1.41,-4.76 -0.64,-1.17 -1.84,-1.84 -3.09,-1.84"
         style="fill:#000000;fill-opacity:1;fill-rule:nonzero;stroke:none"
         id="path248" /><path
         d="m 3091.68,2330.11 c -0.76,0 -1.52,0.24 -2.17,0.75 l -54.04,42.35 c -1.53,1.2 -1.8,3.41 -0.6,4.94 1.2,1.52 3.42,1.78 4.94,0.6 l 54.04,-42.36 c 1.53,-1.2 1.8,-3.4 0.6,-4.93 -0.69,-0.89 -1.73,-1.35 -2.77,-1.35"
         style="fill:#000000;fill-opacity:1;fill-rule:nonzero;stroke:none"
         id="path250" /><path
         d="m 3083.6,2372.46 c -0.65,0 -1.3,0.18 -1.9,0.56 l -45.97,29.73 c -1.63,1.05 -2.1,3.23 -1.04,4.86 1.05,1.63 3.23,2.1 4.86,1.04 l 45.97,-29.72 c 1.63,-1.05 2.09,-3.23 1.04,-4.86 -0.67,-1.04 -1.8,-1.61 -2.96,-1.61"
         style="fill:#000000;fill-opacity:1;fill-rule:nonzero;stroke:none"
         id="path252" /><path
         d="m 2952.12,1887.52 -27.77,-187.77 c 0,0 410,-118.89 496.67,90 86.99,209.68 -12.36,420.73 -85.07,455.92 -72.71,35.19 -144.79,-295.92 -144.79,-295.92 l -239.04,-62.23"
         style="fill:#68b6d8;fill-opacity:1;fill-rule:nonzero;stroke:none"
         id="path254" /><path
         d="m 2977.87,1677.27 -50.25,5.69 c -8.81,0.98 -15.15,8.93 -14.15,17.74 l 22.28,197.38 c 1,8.81 8.95,15.14 17.76,14.15 l 50.25,-5.67 c 8.81,-1 15.15,-8.95 14.15,-17.75 l -22.28,-197.38 c -1,-8.82 -8.95,-15.14 -17.76,-14.16"
         style="fill:#e6f4ff;fill-opacity:1;fill-rule:nonzero;stroke:none"
         id="path256" /><path
         d="m 3064.62,2156.57 -29.23,-43.38 c -4.69,-6.96 -14.12,-8.8 -21.07,-4.11 l -144.37,97.27 c -6.95,4.68 -8.79,14.12 -4.1,21.07 l 29.23,43.39 c 4.69,6.96 14.12,8.79 21.07,4.11 l 144.37,-97.27 c 6.95,-4.69 8.79,-14.12 4.1,-21.08"
         style="fill:#e6f4ff;fill-opacity:1;fill-rule:nonzero;stroke:none"
         id="path258" /><path
         d="m 3083.61,1906.61 c -1.3,0 -2.55,0.73 -3.16,1.98 -0.85,1.74 -0.13,3.84 1.62,4.69 0.93,0.46 94.4,45.55 186.32,53.3 1.93,0.16 3.64,-1.28 3.8,-3.21 0.16,-1.93 -1.27,-3.63 -3.21,-3.79 -90.62,-7.64 -182.91,-52.17 -183.83,-52.62 -0.5,-0.24 -1.02,-0.35 -1.54,-0.35"
         style="fill:#5c69a5;fill-opacity:1;fill-rule:nonzero;stroke:none"
         id="path260" /><path
         d="m 3243.51,1991.75 c -0.34,0 -0.69,-0.02 -1.05,-0.05 -12.3,-1.15 -30.64,-21.1 -41.71,-35.04 21.44,7.63 47.84,19.71 50,28.7 0.23,0.97 0.26,2.3 -1.58,4.09 -1.61,1.56 -3.42,2.3 -5.66,2.3 z m -52.36,-45.52 c -1.1,0 -2.17,0.52 -2.84,1.45 -0.88,1.21 -0.89,2.86 -0.03,4.09 3.22,4.59 32.16,44.93 53.53,46.93 4.78,0.43 8.92,-0.97 12.26,-4.21 4.08,-3.97 4.16,-8.05 3.52,-10.77 -4.21,-17.52 -55.21,-34.17 -65.4,-37.33 -0.34,-0.1 -0.69,-0.16 -1.04,-0.16"
         style="fill:#5c69a5;fill-opacity:1;fill-rule:nonzero;stroke:none"
         id="path262" /><path
         d="m 2987.59,420.719 c -1.88,0 -3.43,1.48 -3.5,3.383 -0.09,1.937 1.43,3.57 3.37,3.648 l 427.48,16.648 c 1.93,-0.027 3.58,-1.429 3.65,-3.378 0.08,-1.938 -1.44,-3.571 -3.37,-3.649 l -427.49,-16.652 c -0.05,0 -0.09,0 -0.14,0"
         style="fill:#40507f;fill-opacity:1;fill-rule:nonzero;stroke:none"
         id="path264" /><path
         d="m 2893.68,420.719 c -0.55,0 -1.13,0.14 -1.66,0.422 l -360.64,193.961 c -1.71,0.918 -2.35,3.046 -1.43,4.757 0.92,1.711 3.04,2.352 4.76,1.442 l 360.64,-193.969 c 1.71,-0.922 2.35,-3.051 1.43,-4.762 -0.63,-1.179 -1.84,-1.851 -3.1,-1.851"
         style="fill:#40507f;fill-opacity:1;fill-rule:nonzero;stroke:none"
         id="path266" /><path
         d="m 566.387,1876.55 c -1.617,0 -3.071,1.12 -3.426,2.77 l -16.793,77.1 c -0.176,0.77 -0.078,1.57 0.262,2.28 0.199,0.4 19.304,40.71 16.074,88.67 -3.223,47.93 -43.938,105.14 -44.348,105.71 -1.133,1.58 -0.773,3.77 0.805,4.91 1.582,1.13 3.773,0.77 4.906,-0.81 1.723,-2.4 42.289,-59.39 45.649,-109.35 3.097,-45.93 -13.028,-84 -16.235,-91.07 l 16.543,-75.95 c 0.414,-1.89 -0.781,-3.77 -2.683,-4.18 -0.25,-0.06 -0.504,-0.08 -0.754,-0.08"
         style="fill:#f7b369;fill-opacity:1;fill-rule:nonzero;stroke:none"
         id="path268" /><path
         d="m 290.715,1835.63 c -1.875,0 -3.438,1.48 -3.508,3.38 -0.078,1.94 1.43,3.57 3.371,3.64 l 82.395,3.18 c 1.945,0.05 3.574,-1.43 3.656,-3.38 0.07,-1.94 -1.441,-3.57 -3.375,-3.64 l -82.402,-3.18 c -0.051,0 -0.094,0 -0.137,0"
         style="fill:#f7b369;fill-opacity:1;fill-rule:nonzero;stroke:none"
         id="path270" /><path
         d="M 7095.33,406.551 V 284.68 l -221.47,8.609 v 113.262 h 221.47"
         style="fill:#f7b369;fill-opacity:1;fill-rule:nonzero;stroke:none"
         id="path272" /><path
         d="M 7606.72,420.281 V 298.41 l -205.02,8.602 v 113.269 h 205.02"
         style="fill:#f7b369;fill-opacity:1;fill-rule:nonzero;stroke:none"
         id="path274" /><path
         d="m 7136.39,1746.96 c 0,0 -134.78,-245.5 -229.49,-665.28 -86.4,-382.879 -105.01,-699.559 -105.01,-699.559 h 373.68 c 0,0 41.57,312.18 52.64,435.711 11.08,123.508 47.92,288.868 47.92,288.868 0,0 51.28,-712.52 63.51,-724.579 12.23,-12.062 369.95,-2.672 366.12,13.699 -3.83,16.36 -135.83,1206.82 -145.51,1284.72 -29.77,239.5 -423.86,66.42 -423.86,66.42"
         style="fill:#a37b90;fill-opacity:1;fill-rule:nonzero;stroke:none"
         id="path276" /><path
         d="m 7350.81,118.082 c 0,-21.5 6.97,-46.1132 21.26,-52.3007 14.29,-6.1915 129.89,-19.1016 231.06,-9.9805 96.83,8.7773 116.93,16.168 124.07,25.289 3.48,4.6524 -3.32,26.1522 -11.13,46.9692 -0.49,1.031 -0.83,2.242 -1.32,3.273 -4,10.488 -8.15,20.648 -11.14,27.879 -2.98,6.871 -6.64,13.41 -10.96,19.777 -10.46,14.973 -31.22,45.942 -36.55,61.934 -6.97,21.34 -17.6,67.457 -24.74,89.137 -7.14,21.32 -24.58,25.8 -24.58,25.8 0,0 -199.16,14.11 -213.45,1.723 -14.11,-12.211 -21.26,-113.73 -21.26,-129.043 V 213.23 c 0,-14.289 -9.46,-42.5 -15.61,-65.898 -1.66,-5.852 -2.99,-11.363 -3.99,-16.352 -0.99,-4.988 -1.66,-9.281 -1.66,-12.898"
         style="fill:#92b4ea;fill-opacity:1;fill-rule:nonzero;stroke:none"
         id="path278" /><path
         d="m 6532.4,74.2109 c 12.64,-5.6796 549.94,-21.6718 562.42,0 3.78,6.5391 6.47,28.7381 8.21,56.6091 4.41,65.719 4.41,163.442 4.41,163.442 0,0 3.95,33.379 3.17,48.867 -0.64,15.312 -259.11,9.461 -259.11,9.461 L 6683.51,208.242 c 0,0 -46.11,8.938 -96.48,0 -26.68,-4.652 -43.88,-40.262 -52.41,-73.812 -7.58,-29.77 -8.21,-57.4691 -2.22,-60.2191"
         style="fill:#92b4ea;fill-opacity:1;fill-rule:nonzero;stroke:none"
         id="path280" /><path
         d="m 7276.13,1103.18 c -1.82,0 -3.36,1.41 -3.5,3.25 -0.12,1.55 -11.78,155.04 -15.16,223.12 -2.9,58.1 -3.43,90.41 -3.51,98.86 l -119.05,54.88 c -1.76,0.81 -2.53,2.9 -1.72,4.67 0.83,1.75 2.93,2.5 4.67,1.71 l 121.07,-55.82 c 1.24,-0.57 2.03,-1.81 2.04,-3.18 0,-0.32 0.13,-32.85 3.51,-100.77 3.38,-67.99 15.04,-221.4 15.16,-222.94 0.15,-1.93 -1.3,-3.62 -3.24,-3.77 -0.09,-0.01 -0.18,-0.01 -0.27,-0.01"
         style="fill:#f7b369;fill-opacity:1;fill-rule:nonzero;stroke:none"
         id="path282" /><path
         d="m 7601.64,250.07 c -0.31,0 -0.62,0.039 -0.94,0.129 -0.78,0.223 -78.56,21.621 -117.64,14.692 l -40.33,-7.18 c -1.56,-0.27 -3.1,0.508 -3.78,1.937 -0.69,1.411 -0.35,3.114 0.84,4.161 2.95,2.601 72.83,63.781 114.79,45.203 1.78,-0.782 2.58,-2.864 1.79,-4.641 -0.78,-1.769 -2.83,-2.59 -4.64,-1.789 -28.94,12.809 -76.08,-19.473 -96.88,-35.57 l 26.98,4.789 c 40.6,7.238 117.51,-13.922 120.75,-14.821 1.87,-0.519 2.97,-2.46 2.45,-4.332 -0.44,-1.558 -1.85,-2.578 -3.39,-2.578"
         style="fill:#a37b90;fill-opacity:1;fill-rule:nonzero;stroke:none"
         id="path284" /><path
         d="m 6718.81,239.34 c -1.78,0 -3.3,1.34 -3.5,3.148 -0.2,1.934 1.19,3.66 3.13,3.864 l 94.25,10.039 -31,37.808 c -1.23,1.492 -1.02,3.711 0.49,4.942 1.49,1.23 3.71,1.019 4.94,-0.493 l 35.13,-42.828 c 0.82,-1 1.02,-2.371 0.53,-3.558 -0.48,-1.203 -1.59,-2.032 -2.88,-2.172 l -100.72,-10.731 c -0.13,-0.007 -0.25,-0.019 -0.37,-0.019"
         style="fill:#a37b90;fill-opacity:1;fill-rule:nonzero;stroke:none"
         id="path286" /><path
         d="m 7560.24,1478.21 c -0.71,0 -1.43,0.21 -2.06,0.66 -64.47,46.58 -90.77,127.82 -91.02,128.63 -0.59,1.85 0.44,3.83 2.28,4.41 1.85,0.63 3.82,-0.44 4.42,-2.28 0.25,-0.8 25.9,-79.88 88.45,-125.05 1.57,-1.15 1.92,-3.34 0.79,-4.92 -0.7,-0.94 -1.77,-1.45 -2.86,-1.45"
         style="fill:#f7b369;fill-opacity:1;fill-rule:nonzero;stroke:none"
         id="path288" /><path
         d="m 7362.77,2323.48 c 0,0 110.65,-5.92 199.39,-82.32 88.73,-76.39 179.32,-329.66 129.4,-409.15 -49.91,-79.5 -113.44,-85.05 -113.44,-85.05 l 3.7,-92.43 -485,-4.51 c 0,0 39.97,588.34 59.46,631.96 19.5,43.63 206.49,41.5 206.49,41.5"
         style="fill:#f7b369;fill-opacity:1;fill-rule:nonzero;stroke:none"
         id="path290" /><path
         d="m 6754.28,2058.59 c 0,0 -20.34,18.96 -72.4,24.82 -24.62,2.78 -55.05,2.92 -82.08,-2.83 -27.04,-5.74 24.66,-31.25 37.06,-32.69 12.4,-1.45 19.43,-16.56 19.43,-16.56 0,0 -102.28,-20.88 -142.34,-36.97 -40.08,-16.09 -12.95,-38.82 -12.95,-38.82 0,0 -31.01,-22.81 -25.88,-37.73 5.12,-14.92 60.25,-1.99 60.25,-1.99 0,0 -50.91,-26.58 -37.81,-41.07 13.1,-14.49 271.8,11.62 301.32,73.04 29.53,61.42 -44.6,110.8 -44.6,110.8"
         style="fill:#f48462;fill-opacity:1;fill-rule:nonzero;stroke:none"
         id="path292" /><path
         d="m 7231.18,2591.91 c 0,0 -39.69,-43.65 -18.89,-92.67 20.8,-49.03 45.76,87.89 45.76,87.89 l -26.87,4.78"
         style="fill:#000000;fill-opacity:1;fill-rule:nonzero;stroke:none"
         id="path294" /><path
         d="m 7359.8,2391.49 0.26,-87.69 c 0,0 -15.74,-25.26 -67.03,-29.57 -38.21,-3.22 -51.65,5.38 -51.65,5.38 l 5.19,44.42 5.13,43.33 92.57,20.64 15.53,3.49"
         style="fill:#f48462;fill-opacity:1;fill-rule:nonzero;stroke:none"
         id="path296" /><path
         d="m 7344.27,2388 c -0.22,-2.39 13.97,-10.13 12.57,-13.37 -19.51,-43.86 -90.13,-65.06 -112.2,-67.1 l 7.06,59.83 92.57,20.64"
         style="fill:#000000;fill-opacity:1;fill-rule:nonzero;stroke:none"
         id="path298" /><path
         d="m 7247.77,2587.3 c -12.16,-9.63 -20.78,-22.99 -25.96,-37.62 -11.95,-33.68 -36.17,-112.35 -21.7,-161 18.81,-63.21 75.72,-52.23 109.65,-39.36 33.93,12.87 49.37,34.38 49.37,34.38 0,0 32.14,-10.41 52.9,20.04 20.76,30.45 6.95,64.76 -11.43,72.36 -18.38,7.6 -39.8,-6.11 -39.8,-6.11 l 16.35,33.15 c 0,0 -61.98,137.48 -129.38,84.16"
         style="fill:#f48462;fill-opacity:1;fill-rule:nonzero;stroke:none"
         id="path300" /><path
         d="m 7364.92,2427.44 c -1.08,0 -2.16,0.51 -2.85,1.46 -1.13,1.57 -0.78,3.77 0.79,4.9 l 39.43,28.53 c 1.57,1.13 3.76,0.79 4.91,-0.78 1.13,-1.58 0.78,-3.78 -0.79,-4.91 l -39.43,-28.53 c -0.62,-0.45 -1.34,-0.67 -2.06,-0.67"
         style="fill:#000000;fill-opacity:1;fill-rule:nonzero;stroke:none"
         id="path302" /><path
         d="m 7400.93,2428.04 c -0.28,0 -0.58,0.03 -0.87,0.1 l -26.04,6.63 c -1.87,0.48 -3.01,2.39 -2.54,4.27 0.48,1.87 2.36,3.02 4.28,2.55 l 26.04,-6.63 c 1.87,-0.48 3.02,-2.39 2.54,-4.27 -0.41,-1.59 -1.84,-2.65 -3.41,-2.65"
         style="fill:#000000;fill-opacity:1;fill-rule:nonzero;stroke:none"
         id="path304" /><path
         d="m 7235.08,2441.61 c -1.31,0 -2.56,0.73 -3.17,1.98 -12.53,25.96 6.41,52.84 7.23,53.98 1.13,1.57 3.34,1.93 4.89,0.8 1.59,-1.13 1.95,-3.32 0.82,-4.9 -0.17,-0.25 -17.31,-24.66 -6.61,-46.82 0.85,-1.75 0.12,-3.85 -1.63,-4.69 -0.5,-0.24 -1.01,-0.35 -1.53,-0.35"
         style="fill:#000000;fill-opacity:1;fill-rule:nonzero;stroke:none"
         id="path306" /><path
         d="m 7220.59,2485.66 c -0.31,0 -0.61,0.04 -0.92,0.13 -1.88,0.5 -2.98,2.43 -2.48,4.3 l 5.44,20.13 c 0.5,1.88 2.39,3 4.3,2.48 1.88,-0.51 2.98,-2.44 2.48,-4.31 l -5.43,-20.13 c -0.42,-1.57 -1.84,-2.6 -3.39,-2.6"
         style="fill:#000000;fill-opacity:1;fill-rule:nonzero;stroke:none"
         id="path308" /><path
         d="m 7220.4,2225.57 -13.47,-589.68 h -131.11 l 15.56,257.8 c 0,0 -93.33,-18.26 -211.12,-19.14 -117.77,-0.89 -165.98,11.16 -165.98,11.16 l 20.33,206.71 c 0,0 143.78,7.19 263.44,79.77 119.66,72.59 164.18,147.33 239.87,145.51 75.68,-1.81 -17.52,-92.13 -17.52,-92.13"
         style="fill:#f7b369;fill-opacity:1;fill-rule:nonzero;stroke:none"
         id="path310" /><path
         d="m 7276.08,2481.93 c -0.3,0 -0.6,0.04 -0.91,0.13 -1.88,0.51 -2.98,2.44 -2.48,4.3 l 5.44,20.13 c 0.49,1.88 2.37,2.99 4.3,2.48 1.88,-0.51 2.98,-2.43 2.48,-4.31 l -5.44,-20.12 c -0.42,-1.58 -1.83,-2.61 -3.39,-2.61"
         style="fill:#000000;fill-opacity:1;fill-rule:nonzero;stroke:none"
         id="path312" /><path
         d="m 7220.59,2525.16 c -1.8,0 -3.33,1.37 -3.5,3.19 -0.19,1.93 1.23,3.65 3.16,3.83 l 16.65,1.57 c 2.09,0.22 3.66,-1.24 3.83,-3.17 0.19,-1.93 -1.23,-3.65 -3.16,-3.83 l -16.65,-1.57 c -0.12,-0.01 -0.23,-0.02 -0.33,-0.02"
         style="fill:#000000;fill-opacity:1;fill-rule:nonzero;stroke:none"
         id="path314" /><path
         d="m 7293.29,2515.38 c -0.47,0 -0.95,0.1 -1.4,0.3 l -22.49,9.78 c -1.78,0.77 -2.59,2.84 -1.82,4.62 0.78,1.78 2.84,2.59 4.63,1.82 l 22.49,-9.78 c 1.78,-0.77 2.59,-2.84 1.81,-4.62 -0.57,-1.32 -1.86,-2.12 -3.22,-2.12"
         style="fill:#000000;fill-opacity:1;fill-rule:nonzero;stroke:none"
         id="path316" /><path
         d="m 7360.8,2469.99 c 0,0 -9.6,-36.36 -16.53,-31.81 -6.94,4.54 -12.74,57.24 -7.19,80.72 5.54,23.47 9.51,35.26 9.51,35.26 0,0 -95.64,9.86 -120.57,32.97 -24.93,23.11 28.61,37.05 83,25.95 54.4,-11.09 75.62,-31.89 75.62,-31.89 0,0 34.24,4.62 46.72,-16.41 12.48,-21.02 -17.7,-99.82 -17.7,-99.82 0,0 -8.34,20 -52.86,5.03"
         style="fill:#000000;fill-opacity:1;fill-rule:nonzero;stroke:none"
         id="path318" /><path
         d="m 7258.04,2404.8 c -1.13,0 -2.23,0.55 -2.91,1.55 -1.09,1.61 -0.67,3.79 0.94,4.88 l 23.47,15.9 c 1.6,1.08 3.79,0.67 4.88,-0.94 1.09,-1.61 0.67,-3.79 -0.93,-4.88 l -23.48,-15.9 c -0.61,-0.41 -1.29,-0.61 -1.97,-0.61"
         style="fill:#000000;fill-opacity:1;fill-rule:nonzero;stroke:none"
         id="path320" /><path
         d="m 6584.19,1926.66 c -0.61,0 -1.22,0.16 -1.78,0.49 -1.67,0.98 -2.23,3.13 -1.26,4.8 l 48.22,82.36 c 0.97,1.68 3.14,2.24 4.81,1.26 1.67,-0.98 2.24,-3.14 1.26,-4.81 l -48.21,-82.36 c -0.66,-1.11 -1.84,-1.74 -3.04,-1.74"
         style="fill:#000000;fill-opacity:1;fill-rule:nonzero;stroke:none"
         id="path322" /><path
         d="m 7200.99,1834.84 c -1.42,0 -2.75,0.86 -3.28,2.25 -24.12,62.95 -64.32,169.55 -62.63,176.3 1.61,6.48 30.52,41.11 42.58,55.35 -14.5,11.98 -49.3,41.47 -50.96,49.75 -1.73,8.67 49.22,102.46 71.21,142.39 0.93,1.7 3.08,2.3 4.78,1.38 1.7,-0.94 2.31,-3.07 1.37,-4.77 -26.97,-48.99 -69.95,-129.78 -70.43,-138.01 1.38,-4.47 27.15,-27.83 51.24,-47.58 0.74,-0.6 1.2,-1.46 1.27,-2.41 0.09,-0.93 -0.2,-1.87 -0.82,-2.58 -20.32,-23.9 -42.13,-51.1 -43.43,-55.25 0.35,-7.47 37.49,-107.06 62.38,-172.05 0.69,-1.82 -0.22,-3.85 -2.02,-4.54 -0.42,-0.16 -0.84,-0.23 -1.26,-0.23"
         style="fill:#5c69a5;fill-opacity:1;fill-rule:nonzero;stroke:none"
         id="path324" /><path
         d="m 7206.48,1650.02 h 168.75 l -42.44,560.55 h -116.63 l -9.68,-560.55"
         style="fill:#5c69a5;fill-opacity:1;fill-rule:nonzero;stroke:none"
         id="path326" /><path
         d="m 7332.79,2136.69 c 0,0 39.63,-503.02 42.1,-500.8 2.48,2.22 211.37,5.8 211.37,5.8 l -6.94,146.66 -246.53,348.34"
         style="fill:#f7b369;fill-opacity:1;fill-rule:nonzero;stroke:none"
         id="path328" /><path
         d="m 7374.89,1834.84 c -0.42,0 -0.84,0.07 -1.26,0.23 -1.8,0.69 -2.71,2.72 -2.02,4.54 24.89,64.99 62.03,164.58 62.3,172.6 -1.22,3.6 -23.03,30.8 -43.36,54.7 -0.62,0.71 -0.91,1.65 -0.82,2.58 0.08,0.95 0.53,1.81 1.27,2.41 24.09,19.75 49.86,43.11 51.29,48.01 -0.53,7.81 -43.5,88.59 -70.47,137.58 -0.94,1.7 -0.33,3.83 1.37,4.77 1.69,0.92 3.85,0.32 4.78,-1.38 21.99,-39.93 72.94,-133.73 71.2,-142.39 -1.65,-8.28 -36.45,-37.77 -50.96,-49.75 12.06,-14.24 40.97,-48.87 42.59,-55.35 1.69,-6.75 -38.51,-113.35 -62.63,-176.3 -0.53,-1.39 -1.86,-2.25 -3.28,-2.25"
         style="fill:#5c69a5;fill-opacity:1;fill-rule:nonzero;stroke:none"
         id="path330" /><path
         d="m 7306.54,2308.16 c 0,0 -133.32,83.45 -148.24,73.78 -14.93,-9.67 57.86,-70.59 57.86,-70.59 0,0 -33.12,-27.96 -34.89,-33.29 -1.77,-5.33 -9.68,-18.41 -15.76,-32.68 -6.1,-14.27 -3.4,-23.79 10.41,-38.66 13.82,-14.88 103.7,-58.24 123.57,-59.62 19.89,-1.39 19.89,-1.39 19.89,-1.39 l 59.21,101.57 c 0,0 3.28,88.94 -15.82,99.69 -19.1,10.76 -28.24,-58.51 -28.24,-58.51 l -27.99,19.7"
         style="fill:#f48462;fill-opacity:1;fill-rule:nonzero;stroke:none"
         id="path332" /><path
         d="m 7334.53,2284.94 c -0.65,0 -1.3,0.18 -1.87,0.55 l -55.74,35.02 c -1.64,1.03 -2.13,3.2 -1.1,4.84 1.06,1.66 3.2,2.13 4.85,1.11 l 51.34,-32.27 c 1.03,5.25 3.01,14.79 6.6,30.09 6.64,28.29 23.87,26.26 24.63,26.18 1.93,-0.27 3.26,-2.04 3.01,-3.96 -0.26,-1.9 -1.91,-3.2 -3.92,-3.02 -0.59,0.11 -11.81,0.8 -16.88,-20.8 -5.86,-25.02 -7.43,-34.69 -7.45,-34.78 -0.19,-1.16 -0.94,-2.16 -2.02,-2.64 -0.46,-0.21 -0.96,-0.32 -1.45,-0.32"
         style="fill:#000000;fill-opacity:1;fill-rule:nonzero;stroke:none"
         id="path334" /><path
         d="m 7231.18,2294.82 c -0.82,0 -1.64,0.28 -2.3,0.86 l -15.02,13.01 c -1.47,1.27 -1.62,3.49 -0.35,4.96 1.28,1.48 3.5,1.62 4.96,0.36 l 15.02,-13.02 c 1.46,-1.27 1.62,-3.49 0.35,-4.95 -0.69,-0.81 -1.67,-1.22 -2.66,-1.22"
         style="fill:#000000;fill-opacity:1;fill-rule:nonzero;stroke:none"
         id="path336" /><path
         d="m 6961.82,2132.35 c 1.26,-16.34 4.59,-38.72 12.05,-45.49 1.39,-1.28 2.83,-1.81 4.32,-1.68 1.43,0.12 1.68,0.65 1.86,0.99 2.99,6.13 -7.39,27.85 -18.23,46.18 z m 15.91,-54.21 c -3.13,0 -6.01,1.18 -8.59,3.52 -13.95,12.67 -14.94,58.79 -15.01,64.01 -0.02,1.56 1,2.95 2.49,3.4 1.51,0.47 3.11,-0.13 3.97,-1.43 5.48,-8.37 32.48,-50.81 25.78,-64.55 -1.41,-2.87 -4.1,-4.62 -7.59,-4.91 -0.35,-0.03 -0.71,-0.04 -1.05,-0.04"
         style="fill:#5c69a5;fill-opacity:1;fill-rule:nonzero;stroke:none"
         id="path338" /><path
         d="m 7091.38,1890.17 c -0.17,0 -0.34,0.02 -0.52,0.04 -1.92,0.29 -3.24,2.08 -2.96,4 l 5.44,36.49 c 0.29,1.9 2.02,3.21 3.99,2.95 1.93,-0.28 3.25,-2.07 2.96,-3.99 l -5.44,-36.49 c -0.26,-1.74 -1.75,-3 -3.47,-3"
         style="fill:#5c69a5;fill-opacity:1;fill-rule:nonzero;stroke:none"
         id="path340" /><path
         d="m 7387.91,2259.18 -87.2,-136.66 c 0,0 76.2,-333.09 259.54,-371.42 183.33,-38.34 144.2,172.42 144.2,172.42 l -316.54,335.66"
         style="fill:#f7b369;fill-opacity:1;fill-rule:nonzero;stroke:none"
         id="path342" /><path
         d="m 7610.99,2037.34 c -1.13,0 -2.23,0.54 -2.91,1.54 -43.11,63.63 -164.97,180.76 -166.19,181.93 -1.41,1.35 -1.45,3.57 -0.11,4.97 1.35,1.41 3.56,1.45 4.97,0.11 1.23,-1.18 123.62,-118.82 167.15,-183.07 1.08,-1.6 0.66,-3.79 -0.94,-4.88 -0.61,-0.41 -1.29,-0.6 -1.97,-0.6"
         style="fill:#5c69a5;fill-opacity:1;fill-rule:nonzero;stroke:none"
         id="path344" /><path
         d="m 7556.97,2115.1 c 19.75,-16.62 45.47,-34.82 54.65,-32.07 0.97,0.29 2.03,0.88 2.63,3.14 0.06,0.23 0.24,0.92 -0.52,2.23 -5.38,9.22 -35.48,20.16 -56.76,26.7 z m 52.96,-39.3 c -20.17,0 -60.99,36.64 -69.42,44.42 -1.18,1.09 -1.48,2.85 -0.7,4.27 0.78,1.41 2.41,2.12 3.97,1.71 6.78,-1.78 66.45,-17.84 76.03,-34.26 1.47,-2.54 1.89,-5.09 1.24,-7.56 -1.4,-5.3 -4.83,-7.33 -7.46,-8.09 -1.12,-0.33 -2.35,-0.49 -3.66,-0.49"
         style="fill:#5c69a5;fill-opacity:1;fill-rule:nonzero;stroke:none"
         id="path346" /><path
         d="m 5477.93,347.211 c 0,0 183.52,-94.223 237.07,-147.66 53.55,-53.449 55.37,-88.891 48.56,-106.1018 -6.81,-17.1992 -391.04,10.6798 -391.04,10.6798 0,0 -1.25,105.781 -42.42,100.09 -41.17,-5.688 -21.4,-100.969 -21.4,-100.969 l -116.28,4.309 c 0,0 -2.46,105.203 7.12,146.211 10.34,44.23 37.7,112.789 37.7,112.789 l 240.69,-19.348"
         style="fill:#68b6d8;fill-opacity:1;fill-rule:nonzero;stroke:none"
         id="path348" /><path
         d="m 5439.06,379.031 c 0,0 157.56,-94.711 128.09,-103.269 -29.47,-8.582 -194.44,-5.602 -242.31,13.328 -47.86,18.922 -87.6,77.469 -87.6,77.469 l 111.86,41.632 89.96,-29.16"
         style="fill:#ed785d;fill-opacity:1;fill-rule:nonzero;stroke:none"
         id="path350" /><path
         d="m 5439.06,379.031 c 0,0 114.15,664.809 40.2,758.979 -73.96,94.16 -243.14,-143.49 -243.14,-143.49 l 1.12,-627.961 c 0,0 150.39,-51.477 201.82,12.472"
         style="fill:#ed785d;fill-opacity:1;fill-rule:nonzero;stroke:none"
         id="path352" /><path
         d="m 5254.87,1058.58 c 0,0 -22.65,-631.26 -53.03,-698.029 -30.39,-66.762 -196.44,0 -196.44,0 l -39.23,684.009 288.7,14.02"
         style="fill:#f48462;fill-opacity:1;fill-rule:nonzero;stroke:none"
         id="path354" /><path
         d="m 5426.26,1711.71 c 0,0 60.89,-189.74 83.54,-348.45 22.63,-158.71 28.13,-414.178 8.58,-422.369 -19.56,-8.211 -244.77,-5.09 -244.77,-5.09 0,0 -76.67,-16.563 -207.35,-5.34 -53.94,4.621 -89.55,10.488 -110.21,14.687 -13.26,2.704 -22.54,14.493 -22.13,28 3.3,107.692 26.89,613.312 94.08,703.982 59.65,80.48 398.26,34.58 398.26,34.58"
         style="fill:#f7b369;fill-opacity:1;fill-rule:nonzero;stroke:none"
         id="path356" /><path
         d="m 5207.84,381.352 c 0,0 59.15,-204.051 47.03,-246.653 -12.12,-42.5896 -136.55,-91.9177 -178.02,-89.6795 -41.48,2.2422 -115.06,73.6995 -125.15,99.4805 -10.09,25.789 41.07,271.859 99.37,256.211 58.29,-15.652 156.77,-19.359 156.77,-19.359"
         style="fill:#81ceea;fill-opacity:1;fill-rule:nonzero;stroke:none"
         id="path358" /><path
         d="m 5207.84,381.352 c 0,0 -28.88,-134.551 -97.31,-134.551 -68.43,0 -105.13,113.75 -105.13,113.75 l 27.73,127.269 174.71,-106.468"
         style="fill:#f48462;fill-opacity:1;fill-rule:nonzero;stroke:none"
         id="path360" /><path
         d="m 5613.49,1885.32 c 0,0 -133.05,303.92 -281.42,346.61 -148.37,42.68 11.33,-381.19 11.33,-381.19 l 270.09,34.58"
         style="fill:#92b4ea;fill-opacity:1;fill-rule:nonzero;stroke:none"
         id="path362" /><path
         d="m 5062.32,2248.91 c 0,0 -289.07,-60.31 -327,-296.2 -52.2,-324.76 346.05,-350.36 346.05,-350.36 l -19.05,646.56"
         style="fill:#92b4ea;fill-opacity:1;fill-rule:nonzero;stroke:none"
         id="path364" /><path
         d="m 5146.53,2298.11 c 0,0 -133.88,-17.8 -90.52,155.43 43.36,173.23 167.35,74.91 167.35,74.91 l -76.83,-230.34"
         style="fill:#000000;fill-opacity:1;fill-rule:nonzero;stroke:none"
         id="path366" /><path
         d="m 5453.18,1628.48 c 0,0 2,546.99 -106.95,598.57 -136.58,64.67 -334.31,34.88 -370.37,-30.93 -41.21,-75.18 17.61,-528.8 17.61,-528.8 0,0 204.54,-115.17 459.71,-38.84"
         style="fill:#92b4ea;fill-opacity:1;fill-rule:nonzero;stroke:none"
         id="path368" /><path
         d="m 5120.83,2344.25 -7.68,-93.11 c 0,0 7.66,-30.79 61.77,-39.72 40.31,-6.65 62.24,3.99 62.24,3.99 l -1.77,47.63 -1.78,46.45 -96.58,29.75 -16.2,5.01"
         style="fill:#f48462;fill-opacity:1;fill-rule:nonzero;stroke:none"
         id="path370" /><path
         d="m 5137.03,2339.24 c 0.03,-2.56 0.74,-5.64 1.96,-9.2 17.01,-48.24 73.14,-62.97 96.4,-67 l -1.78,46.45 -96.58,29.75"
         style="fill:#000000;fill-opacity:1;fill-rule:nonzero;stroke:none"
         id="path372" /><path
         d="m 5271.9,2520.02 c 0,0 39.22,-120.79 14.6,-184.06 -24.61,-63.27 -82.89,-47.21 -117.12,-31.15 -34.23,16.06 -48.56,39.43 -48.56,39.43 0,0 -34.24,-7.99 -53.37,25 -19.14,32.98 -2.02,67.03 17.69,73.28 19.71,6.25 40.88,-9.62 40.88,-9.62 l -14.34,35.39 c 0,0 90.98,163.76 160.22,51.73"
         style="fill:#f48462;fill-opacity:1;fill-rule:nonzero;stroke:none"
         id="path374" /><path
         d="m 5525.9,2055.42 c 0,0 94.56,196.52 80.62,199.11 -13.94,2.61 -99.9,-184.49 -99.9,-184.49 l 19.28,-14.62"
         style="fill:#000000;fill-opacity:1;fill-rule:nonzero;stroke:none"
         id="path376" /><path
         d="m 5431.64,1900.82 c -2.34,0.26 -3.72,2 -3.49,3.93 5.22,44.16 -30.79,183.6 -31.15,185 -0.49,1.88 0.64,3.8 2.52,4.28 1.87,0.48 3.79,-0.63 4.28,-2.51 1.5,-5.79 36.71,-142.13 31.33,-187.6 -0.21,-1.78 -1.73,-3.1 -3.49,-3.1"
         style="fill:#ffffff;fill-opacity:1;fill-rule:nonzero;stroke:none"
         id="path378" /><path
         d="m 5622.7,1957.74 c 0,0 -60.56,127.34 -95.22,145.17 -34.67,17.83 -124.48,10.57 -125.77,0.07 -1.28,-10.51 78.42,-33.01 78.42,-33.01 0,0 -55.22,-74.32 -58.1,-92.16 -2.88,-17.84 32.04,-75 40.47,-81.3 8.42,-6.3 34.61,20.1 34.61,20.1 0,0 21.46,-33.36 55.68,-46.94 34.22,-13.58 81.21,35.18 81.21,35.18 l -11.3,52.89"
         style="fill:#f48462;fill-opacity:1;fill-rule:nonzero;stroke:none"
         id="path380" /><path
         d="m 5270.52,2409.9 c -1.83,0 -3.37,1.41 -3.51,3.26 l -1.72,22.81 c -0.11,1.61 0.87,3.09 2.41,3.6 l 11.2,3.72 c 1.79,0.59 3.82,-0.38 4.44,-2.23 0.61,-1.85 -0.39,-3.83 -2.24,-4.44 l -8.59,-2.85 1.51,-20.09 c 0.15,-1.93 -1.3,-3.62 -3.24,-3.77 -0.09,0 -0.17,-0.01 -0.26,-0.01"
         style="fill:#000000;fill-opacity:1;fill-rule:nonzero;stroke:none"
         id="path382" /><path
         d="m 5516.02,1864.7 c 0,0 -33.6,36.15 -33.77,65.22 -0.18,29.07 63.45,25.04 63.45,25.04 l 7.76,-56.57 -37.44,-33.69"
         style="fill:#ff9c85;fill-opacity:1;fill-rule:nonzero;stroke:none"
         id="path384" /><path
         d="m 5604.12,1637.3 h -420.94 c -14.91,0 -27,12.09 -27,27 v 284.85 c 0,14.91 12.09,27 27,27 h 420.94 c 14.91,0 27,-12.09 27,-27 V 1664.3 c 0,-14.91 -12.09,-27 -27,-27"
         style="fill:#000000;fill-opacity:1;fill-rule:nonzero;stroke:none"
         id="path386" /><path
         d="m 5572.84,1637.3 h -419.16 c -14.88,0 -26.95,12.06 -26.95,26.94 v 284.96 c 0,14.88 12.07,26.95 26.95,26.95 h 419.16 c 14.89,0 26.96,-12.07 26.96,-26.95 v -284.96 c 0,-14.88 -12.07,-26.94 -26.96,-26.94"
         style="fill:#40507f;fill-opacity:1;fill-rule:nonzero;stroke:none"
         id="path388" /><path
         d="m 5421.57,1806.73 c 0,-22.03 -17.84,-39.87 -39.86,-39.87 -22.01,0 -39.86,17.84 -39.86,39.87 0,22.01 17.85,39.86 39.86,39.86 22.02,0 39.86,-17.85 39.86,-39.86"
         style="fill:#ffffff;fill-opacity:1;fill-rule:nonzero;stroke:none"
         id="path390" /><path
         d="m 5203.97,2414.11 c -1.9,0 -3.46,1.51 -3.52,3.42 l -0.57,20.44 c -0.04,1.41 0.77,2.7 2.05,3.29 l 11.01,5.06 c 1.71,0.82 3.84,0.06 4.66,-1.72 0.81,-1.76 0.04,-3.85 -1.73,-4.66 l -8.9,-4.09 0.51,-18.12 c 0.05,-1.94 -1.47,-3.56 -3.42,-3.62 -0.03,0 -0.07,0 -0.09,0"
         style="fill:#000000;fill-opacity:1;fill-rule:nonzero;stroke:none"
         id="path392" /><path
         d="m 5032.12,1821.86 c 0,0 83.56,27.2 94.61,30.74 0,0 1.19,-30.09 -2.48,-35.4 -3.67,-5.29 160.89,-30.67 160.46,-46.56 -0.42,-15.9 -15.71,-19.43 -15.71,-19.43 0,0 32.95,-7.06 24.12,-22.96 -8.83,-15.89 -24.12,-16.54 -24.12,-16.54 0,0 32.42,-15.74 0,-35.8 -32.4,-20.07 -191.4,-32.44 -242.37,18.42 -37.46,37.39 5.49,127.53 5.49,127.53"
         style="fill:#f48462;fill-opacity:1;fill-rule:nonzero;stroke:none"
         id="path394" /><path
         d="m 5126.02,2432.9 c 0,0 55.36,4.62 81.85,37.53 24.25,30.11 35.18,66.27 35.18,66.27 0,0 11.24,-10.13 24.4,-32.62 10.32,-17.64 18.43,-38.95 18.43,-38.95 0,0 25.06,75.61 -42.72,106.7 -67.77,31.08 -130.19,-11.2 -150.91,-53.42 -20.74,-42.23 33.77,-85.51 33.77,-85.51"
         style="fill:#000000;fill-opacity:1;fill-rule:nonzero;stroke:none"
         id="path396" /><path
         d="m 5081.61,1870.64 -4.22,-211.37 c 0,0 -79.18,-12.84 -188.38,60.11 -151.75,101.37 -99.22,133.22 -99.22,133.22 l 146.98,85.51 144.84,-67.47"
         style="fill:#92b4ea;fill-opacity:1;fill-rule:nonzero;stroke:none"
         id="path398" /><path
         d="m 5269,1747.7 c -0.4,0.02 -94.48,10.9 -94.48,10.9 -1.93,0.22 -3.31,1.96 -3.09,3.89 0.23,1.92 1.89,3.24 3.89,3.09 l 94.08,-10.88 c 1.94,-0.22 3.32,-1.96 3.1,-3.89 -0.21,-1.79 -1.73,-3.11 -3.5,-3.11"
         style="fill:#000000;fill-opacity:1;fill-rule:nonzero;stroke:none"
         id="path400" /><path
         d="m 5269,1708.19 h -94.08 c -1.94,0 -3.51,1.57 -3.51,3.52 0,1.94 1.57,3.51 3.51,3.51 H 5269 c 1.95,0 3.52,-1.57 3.52,-3.51 0,-1.95 -1.57,-3.52 -3.52,-3.52"
         style="fill:#000000;fill-opacity:1;fill-rule:nonzero;stroke:none"
         id="path402" /><path
         d="m 5111.11,1873.81 c -0.53,0 -1.07,0.12 -1.58,0.37 -1.3,0.66 -131.23,65.61 -195.72,70.22 -1.93,0.14 -3.39,1.82 -3.25,3.76 0.14,1.92 1.58,3.31 3.76,3.25 65.89,-4.7 193,-68.24 198.38,-70.95 1.72,-0.87 2.43,-2.98 1.56,-4.72 -0.63,-1.23 -1.87,-1.93 -3.15,-1.93"
         style="fill:#ffffff;fill-opacity:1;fill-rule:nonzero;stroke:none"
         id="path404" /><path
         d="m 4966.6,1986.99 c -0.19,0 -0.39,0 -0.59,-0.01 -2.42,-0.09 -3.12,-0.65 -3.16,-0.79 -2.13,-6.45 25.56,-34.23 55.87,-59.49 -11.25,24.12 -32.38,60.29 -52.12,60.29 z m 61.05,-75.6 c -0.77,0 -1.56,0.25 -2.19,0.77 -17.55,13.95 -74.39,60.68 -69.29,76.23 0.8,2.43 3.11,5.38 9.58,5.62 0.28,0.01 0.56,0.02 0.83,0.02 33.56,0 63.09,-74.64 64.34,-77.85 0.57,-1.48 0.1,-3.16 -1.18,-4.1 -0.63,-0.46 -1.36,-0.69 -2.09,-0.69"
         style="fill:#ffffff;fill-opacity:1;fill-rule:nonzero;stroke:none"
         id="path406" /><path
         d="m 5111.22,2513.22 c 0,0 15.97,100.81 -70.06,110.99 -86.03,10.2 -75.23,-160.19 35.49,-158.02 110.73,2.16 34.57,47.03 34.57,47.03"
         style="fill:#000000;fill-opacity:1;fill-rule:nonzero;stroke:none"
         id="path408" /><path
         d="m 5059.98,2464.42 c -0.24,0 -0.5,0.03 -0.75,0.08 -1.9,0.41 -3.1,2.29 -2.69,4.18 10.84,49.75 36.16,67.46 37.23,68.19 1.59,1.09 3.79,0.68 4.86,-0.92 1.11,-1.6 0.7,-3.79 -0.9,-4.88 -0.24,-0.17 -24.13,-17.1 -34.31,-63.88 -0.36,-1.65 -1.82,-2.77 -3.44,-2.77"
         style="fill:#ffffff;fill-opacity:1;fill-rule:nonzero;stroke:none"
         id="path410" /><path
         d="m 5194.35,2461.79 c -1.72,0 -3.23,1.25 -3.48,3 -0.28,1.92 1.04,3.7 2.96,3.99 l 30.59,4.53 c 2.04,0.26 3.73,-1.05 4,-2.97 0.28,-1.91 -1.05,-3.7 -2.96,-3.98 l -30.6,-4.54 c -0.17,-0.02 -0.35,-0.03 -0.51,-0.03"
         style="fill:#000000;fill-opacity:1;fill-rule:nonzero;stroke:none"
         id="path412" /><path
         d="m 5285.88,2461.61 c -0.23,0 -0.46,0.02 -0.69,0.07 l -20.48,4.11 c -1.91,0.39 -3.14,2.24 -2.76,4.14 0.38,1.9 2.18,3.13 4.14,2.76 l 20.48,-4.12 c 1.91,-0.39 3.14,-2.23 2.76,-4.14 -0.34,-1.67 -1.81,-2.82 -3.45,-2.82"
         style="fill:#000000;fill-opacity:1;fill-rule:nonzero;stroke:none"
         id="path414" /><path
         d="m 5243.54,2374.17 c -0.95,0 -1.89,0.38 -2.58,1.13 -1.32,1.43 -1.23,3.65 0.19,4.97 13.4,12.37 -0.07,43.62 -0.21,43.94 -0.77,1.78 0.03,3.85 1.8,4.63 1.83,0.78 3.86,-0.03 4.63,-1.8 0.66,-1.47 15.63,-36.17 -1.45,-51.94 -0.68,-0.63 -1.53,-0.93 -2.38,-0.93"
         style="fill:#000000;fill-opacity:1;fill-rule:nonzero;stroke:none"
         id="path416" /><path
         d="m 5215.64,2348.06 c -0.34,0 -0.68,0.05 -1.02,0.15 -0.72,0.22 -17.92,5.61 -21.4,25.26 -0.34,1.91 0.93,3.73 2.85,4.08 1.97,0.31 3.74,-0.95 4.07,-2.85 2.71,-15.3 15.96,-19.59 16.52,-19.76 1.85,-0.57 2.89,-2.54 2.32,-4.39 -0.45,-1.51 -1.84,-2.49 -3.34,-2.49"
         style="fill:#000000;fill-opacity:1;fill-rule:nonzero;stroke:none"
         id="path418" /><path
         d="m 5117.29,2384.71 c -0.88,0 -1.76,0.33 -2.45,0.99 l -35.49,34.3 c -1.4,1.36 -1.44,3.58 -0.09,4.97 1.36,1.4 3.57,1.44 4.97,0.09 l 35.5,-34.31 c 1.39,-1.35 1.43,-3.57 0.09,-4.97 -0.7,-0.71 -1.62,-1.07 -2.53,-1.07"
         style="fill:#000000;fill-opacity:1;fill-rule:nonzero;stroke:none"
         id="path420" /><path
         d="m 5081.37,2393.51 c -1.73,0 -3.24,1.27 -3.49,3.03 -0.26,1.92 1.09,3.7 3.01,3.96 l 23.46,3.24 c 1.84,0.33 3.7,-1.08 3.96,-3 0.26,-1.92 -1.08,-3.7 -3.01,-3.96 l -23.45,-3.24 c -0.16,-0.02 -0.33,-0.03 -0.48,-0.03"
         style="fill:#000000;fill-opacity:1;fill-rule:nonzero;stroke:none"
         id="path422" /><path
         d="m 5191.07,2206.1 c -27.55,0 -58.78,7.24 -82.54,33.07 -1.31,1.43 -1.22,3.65 0.2,4.97 1.43,1.32 3.65,1.23 4.97,-0.21 50.5,-54.87 138.14,-19.89 139.03,-19.53 1.77,0.72 3.84,-0.13 4.58,-1.92 0.73,-1.8 -0.13,-3.85 -1.92,-4.59 -0.52,-0.21 -29.47,-11.79 -64.32,-11.79"
         style="fill:#ffffff;fill-opacity:1;fill-rule:nonzero;stroke:none"
         id="path424" /><path
         d="m 5525.9,2051.9 c -0.86,0 -1.72,0.31 -2.39,0.94 -8.64,8.05 -34.53,12.57 -43.78,13.64 -1.94,0.22 -3.31,1.96 -3.1,3.89 0.24,1.91 1.93,3.3 3.9,3.09 1.45,-0.17 35.68,-4.21 47.76,-15.47 1.43,-1.32 1.51,-3.55 0.18,-4.97 -0.7,-0.74 -1.63,-1.12 -2.57,-1.12"
         style="fill:#000000;fill-opacity:1;fill-rule:nonzero;stroke:none"
         id="path426" /><path
         d="m 5028,930.738 c -1.52,0 -2.92,1 -3.37,2.532 l -28.89,98.64 -20.27,-90.539 c -0.42,-1.891 -2.26,-3.121 -4.2,-2.652 -1.89,0.422 -3.09,2.301 -2.66,4.203 l 23.26,103.818 c 0.35,1.57 1.7,2.69 3.31,2.75 1.64,0 3.03,-0.99 3.48,-2.53 l 32.71,-111.722 c 0.54,-1.859 -0.52,-3.816 -2.39,-4.347 -0.33,-0.102 -0.66,-0.153 -0.98,-0.153"
         style="fill:#40507f;fill-opacity:1;fill-rule:nonzero;stroke:none"
         id="path428" /><path
         d="m 5034.87,56.7695 c 14.13,0 25.59,11.461 25.59,25.5899 V 1311.1 H 5009.3 V 82.3594 c 0,-14.1289 11.45,-25.5899 25.57,-25.5899"
         style="fill:#b8b0bf;fill-opacity:1;fill-rule:nonzero;stroke:none"
         id="path430" /><path
         d="m 4110.29,237.988 h 99.4 v 677.973 h -99.4 V 237.988"
         style="fill:#c7bfce;fill-opacity:1;fill-rule:nonzero;stroke:none"
         id="path432" /><path
         d="m 3950.55,197.379 h 417.09 c 17.25,0 31.25,13.98 31.25,31.242 0,17.258 -14,31.238 -31.25,31.238 h -417.09 c -17.26,0 -31.25,-13.98 -31.25,-31.238 0,-17.262 13.99,-31.242 31.25,-31.242"
         style="fill:#c7bfce;fill-opacity:1;fill-rule:nonzero;stroke:none"
         id="path434" /><path
         d="m 4311.81,149.5 c 0,-37.109 30.09,-67.1992 67.18,-67.1992 37.11,0 67.19,30.0902 67.19,67.1992 0,37.102 -30.08,67.191 -67.19,67.191 -37.09,0 -67.18,-30.089 -67.18,-67.191"
         style="fill:#c7bfce;fill-opacity:1;fill-rule:nonzero;stroke:none"
         id="path436" /><path
         d="m 4092.8,149.5 c 0,-37.109 30.08,-67.1992 67.19,-67.1992 37.11,0 67.19,30.0902 67.19,67.1992 0,37.102 -30.08,67.191 -67.19,67.191 -37.11,0 -67.19,-30.089 -67.19,-67.191"
         style="fill:#c7bfce;fill-opacity:1;fill-rule:nonzero;stroke:none"
         id="path438" /><path
         d="m 3874.7,149.5 c 0,-37.109 30.09,-67.1992 67.2,-67.1992 37.1,0 67.18,30.0902 67.18,67.1992 0,37.102 -30.08,67.191 -67.18,67.191 -37.11,0 -67.2,-30.089 -67.2,-67.191"
         style="fill:#c7bfce;fill-opacity:1;fill-rule:nonzero;stroke:none"
         id="path440" /><path
         d="m 3868.33,1548.11 c 0,0 -210.53,-125.91 -163.7,-402.14 53.87,-317.798 370.7,-420.829 645.55,-345.751 274.83,75.082 229.03,291.611 229.03,291.611 l -710.88,456.28"
         style="fill:#e0dfe5;fill-opacity:1;fill-rule:nonzero;stroke:none"
         id="path442" /><path
         d="m 3826.55,970.832 c -0.86,0 -1.71,0.309 -2.38,0.93 -70.07,64.808 -83.08,187.228 -83.59,192.408 -0.2,1.93 1.21,3.65 3.14,3.84 1.93,0.13 3.66,-1.21 3.85,-3.14 0.13,-1.24 13.28,-124.97 81.37,-187.948 1.42,-1.32 1.51,-3.531 0.19,-4.961 -0.69,-0.75 -1.62,-1.129 -2.58,-1.129"
         style="fill:#ffffff;fill-opacity:1;fill-rule:nonzero;stroke:none"
         id="path444" /><path
         d="m 4247.97,1925.03 c 0,0 143.38,-12.7 197.23,-81.92 53.84,-69.23 -17.31,-503.27 -21.16,-509.31 -3.84,-6.06 -103.71,-50.29 -277.81,-46.44 -174.09,3.85 -216.4,37.1 -222.16,46.44 -5.77,9.33 -42.31,499.33 0,540.86 42.3,41.52 218.97,63.07 323.9,50.37"
         style="fill:#5c69a5;fill-opacity:1;fill-rule:nonzero;stroke:none"
         id="path446" /><path
         d="M 4440.56,473.301 V 288.602 l -140.65,-53.211 -88.62,99.379 -14.58,170.851 243.85,-32.32"
         style="fill:#f48462;fill-opacity:1;fill-rule:nonzero;stroke:none"
         id="path448" /><path
         d="M 4703.81,511.59 V 326.891 l -149.86,-53.211 -94.45,99.379 -15.52,170.851 259.83,-32.32"
         style="fill:#f48462;fill-opacity:1;fill-rule:nonzero;stroke:none"
         id="path450" /><path
         d="m 4397.11,1367.43 c 0,0 358.27,-180.25 402.26,-253.47 43.98,-73.23 -4.47,-669.901 -4.47,-669.901 l -317.67,-4.239 -43.99,333.45 -241.45,561.69 205.32,32.47"
         style="fill:#68b6d8;fill-opacity:1;fill-rule:nonzero;stroke:none"
         id="path452" /><path
         d="m 3961.78,1329.46 c 0,0 -14.47,-160.11 -9.31,-212.65 5.17,-52.55 170.95,-176.341 170.95,-176.341 l 8.2,-512.528 367.3,-16.429 c 0,0 7.99,585.707 1.86,640.878 -6.13,55.16 -250.51,255.77 -250.51,255.77 l -288.49,21.3"
         style="fill:#68b6d8;fill-opacity:1;fill-rule:nonzero;stroke:none"
         id="path454" /><path
         d="m 4162.55,1999.91 2.07,-93.27 c 0,0 17.42,-26.44 72.08,-29.67 40.72,-2.4 54.8,7.11 54.8,7.11 l -6.71,47.11 -6.62,45.95 -99.01,19.48 -16.61,3.29"
         style="fill:#f48462;fill-opacity:1;fill-rule:nonzero;stroke:none"
         id="path456" /><path
         d="m 4179.16,1996.62 c 0.29,-2.54 1.33,-5.52 2.91,-8.94 21.91,-46.13 79.19,-54.9 102.72,-56.49 l -6.62,45.95 -99.01,19.48"
         style="fill:#000000;fill-opacity:1;fill-rule:nonzero;stroke:none"
         id="path458" /><path
         d="m 4294.25,2190.2 c 0,0 51.55,-115.86 33.7,-181.26 -17.86,-65.4 -77.4,-55.53 -113.08,-43.15 -35.67,12.39 -52.33,34.1 -52.33,34.1 0,0 -33.16,-11.49 -55.61,19.27 -22.44,30.76 -8.99,66.35 9.94,74.61 18.92,8.26 41.59,-5.29 41.59,-5.29 l -17.92,33.65 c 0,0 73.28,172.11 153.71,68.07"
         style="fill:#f48462;fill-opacity:1;fill-rule:nonzero;stroke:none"
         id="path460" /><path
         d="m 4289.87,2042.71 c -0.34,0 -0.69,0.05 -1.03,0.16 -1.86,0.57 -2.9,2.54 -2.33,4.4 6.64,21.42 -9.41,44.66 -9.57,44.89 -1.12,1.59 -0.73,3.78 0.85,4.9 1.59,1.11 3.77,0.73 4.9,-0.86 0.75,-1.06 18.2,-26.25 10.54,-51.01 -0.47,-1.51 -1.85,-2.48 -3.36,-2.48"
         style="fill:#000000;fill-opacity:1;fill-rule:nonzero;stroke:none"
         id="path462" /><path
         d="m 4153.52,2034.17 c -0.94,0 -1.87,0.37 -2.56,1.1 l -31.56,33.45 c -1.33,1.41 -1.27,3.64 0.14,4.97 1.42,1.33 3.63,1.26 4.97,-0.15 l 31.56,-33.45 c 1.33,-1.41 1.27,-3.63 -0.14,-4.97 -0.69,-0.64 -1.54,-0.95 -2.41,-0.95"
         style="fill:#000000;fill-opacity:1;fill-rule:nonzero;stroke:none"
         id="path464" /><path
         d="m 4120.11,2043.13 c -1.71,0 -3.21,1.25 -3.48,2.99 -0.29,1.91 1.03,3.71 2.95,4 l 21.83,3.31 c 2.03,0.27 3.71,-1.05 4,-2.95 0.29,-1.92 -1.02,-3.71 -2.95,-4 l -21.82,-3.31 c -0.18,-0.03 -0.37,-0.04 -0.53,-0.04"
         style="fill:#000000;fill-opacity:1;fill-rule:nonzero;stroke:none"
         id="path466" /><path
         d="m 4237.23,2086.05 c -1.75,0 -3.26,1.3 -3.49,3.07 l -2.76,21.66 c -0.25,1.92 1.11,3.68 3.03,3.93 2,0.29 3.7,-1.11 3.94,-3.04 l 2.76,-21.66 c 0.25,-1.92 -1.11,-3.68 -3.03,-3.93 -0.16,-0.02 -0.31,-0.03 -0.45,-0.03"
         style="fill:#000000;fill-opacity:1;fill-rule:nonzero;stroke:none"
         id="path468" /><path
         d="m 4301.49,2091.21 c -1.71,0 -3.22,1.26 -3.47,3.01 l -3.18,21.59 c -0.28,1.93 1.05,3.71 2.97,3.99 1.9,0.26 3.7,-1.05 3.99,-2.96 l 3.17,-21.6 c 0.28,-1.92 -1.04,-3.71 -2.97,-3.99 -0.16,-0.02 -0.34,-0.04 -0.51,-0.04"
         style="fill:#000000;fill-opacity:1;fill-rule:nonzero;stroke:none"
         id="path470" /><path
         d="m 4222.4,2125.68 c -0.57,0 -1.16,0.14 -1.7,0.43 -1.7,0.94 -2.31,3.08 -1.37,4.78 8.24,14.97 27.37,10.44 28.19,10.24 1.88,-0.46 3.03,-2.35 2.57,-4.24 -0.45,-1.87 -2.31,-3.03 -4.24,-2.59 -0.59,0.15 -14.75,3.41 -20.37,-6.8 -0.64,-1.17 -1.84,-1.82 -3.08,-1.82"
         style="fill:#000000;fill-opacity:1;fill-rule:nonzero;stroke:none"
         id="path472" /><path
         d="m 4306.17,2134.47 c -1.05,0 -2.09,0.47 -2.78,1.37 -0.05,0.05 -4.36,5.54 -9.74,6.07 -2.49,0.26 -4.92,-0.64 -7.34,-2.76 -1.46,-1.27 -3.67,-1.13 -4.95,0.34 -1.28,1.47 -1.13,3.69 0.34,4.96 3.92,3.41 8.27,4.88 12.7,4.45 8.42,-0.85 14.32,-8.47 14.57,-8.79 1.17,-1.54 0.87,-3.74 -0.66,-4.92 -0.63,-0.49 -1.39,-0.72 -2.14,-0.72"
         style="fill:#000000;fill-opacity:1;fill-rule:nonzero;stroke:none"
         id="path474" /><path
         d="m 4169.62,2080.65 c 0,0 31.5,21.31 29.62,53.63 -1.89,32.33 -9,40.57 -9,40.57 0,0 36.78,1.91 67.18,11.81 19.8,6.45 28.31,13.55 28.31,13.55 l 8.52,-10.01 c 9.29,0.42 30.5,56.7 16.52,66.7 -13.97,10 -88.8,-16.08 -88.8,-16.08 0,0 -78.81,18.54 -124.84,-37.5 -46.03,-56.04 5.55,-122.04 5.55,-122.04 0,0 13.62,28.89 66.94,-0.63"
         style="fill:#000000;fill-opacity:1;fill-rule:nonzero;stroke:none"
         id="path476" /><path
         d="m 4249.27,2020.49 c -0.06,-1.55 0.13,-3.36 0.96,-4.93 0.95,-1.82 2.65,-3.07 5.19,-3.81 5.27,-1.55 10.06,-0.24 13.5,1.39 z m 11.03,-16.48 c -2.17,0 -4.47,0.29 -6.85,0.99 -4.43,1.3 -7.61,3.77 -9.47,7.34 -3.31,6.33 -0.89,13.73 -0.79,14.04 0.31,0.91 0.96,1.65 1.82,2.06 0.87,0.4 1.86,0.45 2.74,0.12 l 30.14,-11.28 c 1.14,-0.42 1.98,-1.41 2.22,-2.6 0.23,-1.2 -0.16,-2.43 -1.05,-3.26 -0.39,-0.36 -8.07,-7.41 -18.76,-7.41"
         style="fill:#000000;fill-opacity:1;fill-rule:nonzero;stroke:none"
         id="path478" /><path
         d="m 4858.67,1677.72 3.31,20.83 c 0,0 79.87,60.8 129.02,80.86 20.67,8.44 49.65,1.41 25.21,-25.97 -13.19,-14.77 -19.77,-32.33 -19.77,-32.33 0,0 39.47,12.47 66.54,30.41 17.34,11.49 42.68,57.69 57.56,47.68 23.65,-15.93 -3.54,-61.02 -3.54,-61.02 0,0 12.29,57.12 35.63,34.82 23.25,-22.21 -40.27,-134.39 -70.51,-161.18 -30.24,-26.78 -189.82,-57.98 -189.82,-57.98 l -33.63,123.88"
         style="fill:#f48462;fill-opacity:1;fill-rule:nonzero;stroke:none"
         id="path480" /><path
         d="m 5026.85,1696.65 c -1.79,0 -3.32,1.35 -3.5,3.17 -0.2,1.93 1.22,3.65 3.15,3.84 34.74,3.42 67.86,34.28 68.19,34.59 1.41,1.33 3.62,1.27 4.97,-0.15 1.33,-1.41 1.27,-3.64 -0.15,-4.97 -1.41,-1.34 -35.16,-32.81 -72.32,-36.46 -0.12,-0.02 -0.24,-0.02 -0.34,-0.02"
         style="fill:#000000;fill-opacity:1;fill-rule:nonzero;stroke:none"
         id="path482" /><path
         d="m 5068.21,1670.73 c -0.63,0 -1.26,0.17 -1.82,0.51 l -69.97,42.46 c -1.66,1.01 -2.19,3.17 -1.19,4.83 1.02,1.67 3.18,2.18 4.84,1.18 l 67.94,-41.23 31.46,23.58 c 1.56,1.17 3.75,0.85 4.93,-0.7 1.16,-1.55 0.84,-3.76 -0.71,-4.92 l -33.37,-25.01 c -0.62,-0.47 -1.36,-0.7 -2.11,-0.7"
         style="fill:#000000;fill-opacity:1;fill-rule:nonzero;stroke:none"
         id="path484" /><path
         d="m 4933.63,1672.05 c -1.49,0 -2.88,0.95 -3.35,2.46 -0.58,1.84 0.44,3.83 2.3,4.4 38.01,11.99 62.77,39.83 63.02,40.12 1.3,1.46 3.5,1.6 4.96,0.32 1.46,-1.28 1.61,-3.5 0.33,-4.96 -1.06,-1.2 -26.25,-29.59 -66.2,-42.18 -0.35,-0.11 -0.71,-0.16 -1.06,-0.16"
         style="fill:#000000;fill-opacity:1;fill-rule:nonzero;stroke:none"
         id="path486" /><path
         d="m 4427.32,1861.58 c 0,0 162.55,-143.65 293.77,-152.05 63.28,-4.04 148.16,26.16 148.16,26.16 l 75.41,-197.32 c 0,0 -265.15,-251.24 -535.26,-53.27 -77.62,56.9 17.92,376.48 17.92,376.48"
         style="fill:#5c69a5;fill-opacity:1;fill-rule:nonzero;stroke:none"
         id="path488" /><path
         d="m 4446.5,1613.84 c -1.94,0 -3.51,1.58 -3.51,3.52 0,23.63 -42.84,153.55 -43.28,154.86 -0.61,1.85 0.39,3.84 2.23,4.44 1.9,0.63 3.84,-0.39 4.45,-2.23 1.77,-5.39 43.63,-132.31 43.63,-157.07 0,-1.94 -1.57,-3.52 -3.52,-3.52"
         style="fill:#f7b369;fill-opacity:1;fill-rule:nonzero;stroke:none"
         id="path490" /><path
         d="m 4418.84,117.949 c 0,0 6.59,296.93 52.73,290.75 46.15,-6.187 92.28,-49.488 92.28,-49.488 0,0 105.47,55.668 151.61,24.738 46.14,-30.929 72.66,-98.98 72.66,-98.98 l 256.93,-167.02 c 0,0 31.06,-49.4998 22.13,-74.2381 -6.98,-19.3125 -397.76,-8.4921 -569.17,-2.8007 -44.21,1.4687 -79.17,35.5195 -79.17,77.0388 v 0"
         style="fill:#f2a253;fill-opacity:1;fill-rule:nonzero;stroke:none"
         id="path492" /><path
         d="m 4551.38,190.18 c 0,0 -64.42,157.672 -106.02,184.89 -41.61,27.211 -145.66,-59.179 -145.66,-59.179 0,0 -87.14,91.738 -108.58,43.609 C 4169.69,311.371 4159.3,139.012 4175.54,100.961 4191.78,62.9219 4311.32,-0.429688 4468.37,0.0117188 4542.36,0.210938 4649.08,23.0586 4649.15,48.4805 4649.26,88.4609 4576.61,163.84 4551.38,190.18"
         style="fill:#f7b369;fill-opacity:1;fill-rule:nonzero;stroke:none"
         id="path494" /><path
         d="m 4486.73,241.219 h -120.51 c -1.94,0 -3.51,1.57 -3.51,3.511 0,1.95 1.57,3.52 3.51,3.52 h 120.51 c 1.94,0 3.51,-1.57 3.51,-3.52 0,-1.941 -1.57,-3.511 -3.51,-3.511"
         style="fill:#ffffff;fill-opacity:1;fill-rule:nonzero;stroke:none"
         id="path496" /><path
         d="m 4252.15,1870.16 52.74,-349.55 h -43.69 l -38.8,356.75 29.75,-7.2"
         style="fill:#40507f;fill-opacity:1;fill-rule:nonzero;stroke:none"
         id="path498" /><path
         d="m 4902.92,1503.69 38.36,12.8 c 4.99,1.67 7.69,7.06 6.02,12.05 l -69.81,209.16 c -1.66,4.99 -7.05,7.69 -12.04,6.02 l -38.36,-12.8 c -4.99,-1.67 -7.69,-7.06 -6.02,-12.05 l 69.8,-209.16 c 1.66,-4.99 7.06,-7.68 12.05,-6.02"
         style="fill:#40507f;fill-opacity:1;fill-rule:nonzero;stroke:none"
         id="path500" /><path
         d="m 4506.66,186.672 h -127.67 c -1.94,0 -3.51,1.57 -3.51,3.508 0,1.949 1.57,3.519 3.51,3.519 h 127.67 c 1.94,0 3.52,-1.57 3.52,-3.519 0,-1.938 -1.58,-3.508 -3.52,-3.508"
         style="fill:#ffffff;fill-opacity:1;fill-rule:nonzero;stroke:none"
         id="path502" /><path
         d="m 4724.53,259.68 c -1.74,0 -3.24,1.281 -3.48,3.039 -0.26,1.929 1.08,3.703 3,3.972 l 76.82,10.469 c 2.01,0.231 3.7,-1.09 3.96,-3 0.26,-1.93 -1.08,-3.699 -3,-3.969 l -76.82,-10.48 c -0.17,-0.02 -0.32,-0.031 -0.48,-0.031"
         style="fill:#ffffff;fill-opacity:1;fill-rule:nonzero;stroke:none"
         id="path504" /><path
         d="m 4743.81,206.582 c -1.71,0 -3.21,1.25 -3.48,2.988 -0.29,1.91 1.03,3.711 2.95,4 l 129.25,19.66 c 1.88,0.34 3.71,-1.031 4,-2.949 0.3,-1.91 -1.02,-3.711 -2.95,-4 l -129.24,-19.66 c -0.18,-0.031 -0.36,-0.039 -0.53,-0.039"
         style="fill:#ffffff;fill-opacity:1;fill-rule:nonzero;stroke:none"
         id="path506" /><path
         d="m 4515.1,454.742 c -2.03,0.047 -3.57,1.656 -3.52,3.61 0.14,5.457 13.5,546.838 0.08,610.358 -9.15,43.26 -146.51,178.19 -147.9,179.55 -0.86,0.84 -1.23,2.07 -0.98,3.25 0.26,1.17 1.1,2.14 2.23,2.56 l 99.03,36.36 c 1.85,0.67 3.84,-0.27 4.52,-2.09 0.66,-1.83 -0.27,-3.84 -2.09,-4.51 l -93.83,-34.45 c 23.27,-23.08 137.11,-137.65 145.9,-179.23 13.59,-64.3 0.63,-589.65 0.07,-611.978 -0.04,-1.91 -1.61,-3.43 -3.51,-3.43"
         style="fill:#40507f;fill-opacity:1;fill-rule:nonzero;stroke:none"
         id="path508" /><path
         d="m 4189.73,1396.79 c 0,0 86.21,-34.81 103.23,-32.49 17.01,2.33 78.41,9.18 80.91,22.13 l -23.1,39.56 c 0,0 34.34,-14.39 57.6,-2.33 23.26,12.06 51.18,36.29 56.86,54.82 5.68,18.54 -21.12,14.8 -21.12,14.8 0,0 30.31,18.87 -8.2,35.02 -38.52,16.15 -204.95,40.12 -274.25,-3.34 -69.31,-43.48 28.07,-128.17 28.07,-128.17"
         style="fill:#f48462;fill-opacity:1;fill-rule:nonzero;stroke:none"
         id="path510" /><path
         d="m 4444.11,1489.76 c -0.37,0 -0.75,0.06 -1.13,0.19 -39.99,13.6 -82.72,7.77 -83.14,7.7 -2.02,-0.33 -3.71,1.08 -3.97,2.98 -0.27,1.93 1.06,3.7 2.98,3.98 1.81,0.26 44.77,6.15 86.39,-8 1.84,-0.63 2.83,-2.63 2.2,-4.46 -0.5,-1.47 -1.86,-2.39 -3.33,-2.39"
         style="fill:#000000;fill-opacity:1;fill-rule:nonzero;stroke:none"
         id="path512" /><path
         d="m 4170.15,981 c -4.82,0 -9.23,-1.371 -13.36,-4.148 -17.06,-11.422 -23.94,-43.043 -26.21,-57.18 25.36,15.058 59.32,39.808 57.94,52.437 -0.35,3.161 -3.55,5.68 -9.51,7.481 -3.1,0.941 -6.05,1.41 -8.86,1.41 z m -44.04,-71.48 c -0.67,0 -1.33,0.191 -1.91,0.562 -1.1,0.727 -1.71,1.988 -1.58,3.297 0.2,2.133 5.35,52.621 30.24,69.312 8.31,5.571 17.81,6.77 28.19,3.641 8.91,-2.703 13.77,-7.23 14.46,-13.461 2.49,-22.762 -60.48,-58.859 -67.68,-62.902 -0.52,-0.309 -1.12,-0.449 -1.72,-0.449"
         style="fill:#40507f;fill-opacity:1;fill-rule:nonzero;stroke:none"
         id="path514" /><path
         d="m 4358.54,1377.18 h 444.03 l 126.82,286.85 h -426.53 c -10.64,0 -20.28,-6.27 -24.59,-16.01 l -119.73,-270.84"
         style="fill:#ffffff;fill-opacity:1;fill-rule:nonzero;stroke:none"
         id="path516" /><path
         d="m 4397.11,1377.18 h 444.02 l 113.19,256.01 c 6.41,14.52 -4.21,30.84 -20.09,30.84 h -410.3 l -126.82,-286.85"
         style="fill:#7c576c;fill-opacity:1;fill-rule:nonzero;stroke:none"
         id="path518" /><path
         d="m 4209.69,1340.94 h 626.92 c 10,0 18.12,8.12 18.12,18.13 0,10 -8.12,18.11 -18.12,18.11 h -626.92 c -10.01,0 -18.12,-8.11 -18.12,-18.11 0,-10.01 8.11,-18.13 18.12,-18.13"
         style="fill:#000000;fill-opacity:1;fill-rule:nonzero;stroke:none"
         id="path520" /><path
         d="m 3924.07,1874.66 c 0,0 -248.31,-270.32 -207.93,-446.26 40.38,-175.96 530.54,-60.97 530.54,-60.97 l -5.33,205.63 -254.79,39.91 -62.49,261.69"
         style="fill:#5c69a5;fill-opacity:1;fill-rule:nonzero;stroke:none"
         id="path522" /><path
         d="m 3908.82,1629.07 c -11.83,0 -22.69,-2.88 -30.15,-10.88 -2.91,-3.12 -3.48,-5.1 -3.08,-5.84 4.02,-7.4 48.54,-4.88 91.35,1.82 -13.18,5.82 -37.14,14.9 -58.12,14.9 z m -6.8,-28.24 c -16.25,0 -29.3,2.07 -32.6,8.17 -2.18,4.01 -0.79,8.72 4.12,13.99 30.42,32.61 103.6,-5.72 106.7,-7.35 1.33,-0.7 2.07,-2.18 1.82,-3.65 -0.23,-1.49 -1.39,-2.66 -2.86,-2.92 -14.67,-2.56 -50.29,-8.24 -77.18,-8.24"
         style="fill:#f7b369;fill-opacity:1;fill-rule:nonzero;stroke:none"
         id="path524" /><path
         d="m 3959.76,1313.01 c -2.32,0 -4.63,0.01 -6.97,0.03 -2.27,0.01 -4.09,1.87 -4.07,4.13 0.01,2.26 1.85,4.08 4.1,4.08 123.46,-0.57 225.18,24.62 226.19,24.88 2.25,0.55 4.45,-0.77 4.99,-2.96 0.57,-2.2 -0.76,-4.43 -2.95,-4.99 -1.01,-0.26 -100.15,-25.17 -221.29,-25.17"
         style="fill:#ffba57;fill-opacity:1;fill-rule:nonzero;stroke:none"
         id="path526" /><path
         d="m 3978.59,1609.02 c -1.11,0 -2.2,0.53 -2.89,1.51 -1.1,1.61 -0.7,3.79 0.89,4.9 22.54,15.58 2.92,67.93 2.73,68.45 -0.7,1.82 0.21,3.85 2.03,4.53 1.79,0.68 3.85,-0.2 4.53,-2.03 0.9,-2.36 21.74,-58.05 -5.28,-76.73 -0.62,-0.42 -1.31,-0.63 -2.01,-0.63"
         style="fill:#f7b369;fill-opacity:1;fill-rule:nonzero;stroke:none"
         id="path528" /><path
         d="m 3731.44,1281.49 h 1393.59 c 18.01,0 32.61,14.6 32.61,32.61 0,18.02 -14.6,32.62 -32.61,32.62 H 3731.44 c -18.01,0 -32.61,-14.6 -32.61,-32.62 0,-18.01 14.6,-32.61 32.61,-32.61"
         style="fill:#b8b0bf;fill-opacity:1;fill-rule:nonzero;stroke:none"
         id="path530" /><path
         d="m 4426.48,502.109 c -0.19,0.012 -288.93,15.121 -288.93,15.121 -1.93,0.102 -3.43,1.75 -3.32,3.692 0.1,1.937 1.45,3.637 3.69,3.316 l 288.74,-15.109 c 1.93,-0.098 3.43,-1.75 3.32,-3.688 -0.1,-1.882 -1.65,-3.332 -3.5,-3.332"
         style="fill:#40507f;fill-opacity:1;fill-rule:nonzero;stroke:none"
         id="path532" /><path
         d="m 4774.2,517.219 h -257.69 c -1.94,0 -3.51,1.582 -3.51,3.523 0,1.938 1.57,3.508 3.51,3.508 h 257.69 c 1.94,0 3.52,-1.57 3.52,-3.508 0,-1.941 -1.58,-3.523 -3.52,-3.523"
         style="fill:#40507f;fill-opacity:1;fill-rule:nonzero;stroke:none"
         id="path534" /><path
         d="m 4202.19,1353.89 h 40.44 c 5.26,0 9.52,4.27 9.52,9.52 v 220.51 c 0,5.26 -4.26,9.52 -9.52,9.52 h -40.44 c -5.27,0 -9.52,-4.26 -9.52,-9.52 v -220.51 c 0,-5.25 4.25,-9.52 9.52,-9.52"
         style="fill:#40507f;fill-opacity:1;fill-rule:nonzero;stroke:none"
         id="path536" /><path
         d="m 4638.95,1520.61 c 0,-20.83 16.88,-37.71 37.71,-37.71 20.83,0 37.72,16.88 37.72,37.71 0,20.82 -16.89,37.71 -37.72,37.71 -20.83,0 -37.71,-16.89 -37.71,-37.71"
         style="fill:#ffffff;fill-opacity:1;fill-rule:nonzero;stroke:none"
         id="path538" /><path
         d="m 4286.48,1919.29 c 0,0 29.68,-99.62 19.69,-97.67 -9.98,1.95 -69.47,55.35 -69.47,55.35 0,0 -43.34,-55.01 -57.54,-55.38 -14.19,-0.36 -19.17,106.79 -19.17,106.79 0,0 14.68,-33.53 67.24,-41.05 52.56,-7.52 59.25,31.96 59.25,31.96"
         style="fill:#40507f;fill-opacity:1;fill-rule:nonzero;stroke:none"
         id="path540" /><path
         d="m 3821.59,59.6211 c 14.13,0 25.59,11.4492 25.59,25.5781 V 1313.94 h -51.17 V 85.1992 c 0,-14.1289 11.46,-25.5781 25.58,-25.5781"
         style="fill:#b8b0bf;fill-opacity:1;fill-rule:nonzero;stroke:none"
         id="path542" /><path
         d="m 1011.25,3390.76 c -42.293,0 -76.703,-34.41 -76.703,-76.71 v -312.76 c 0,-42.29 34.41,-76.7 76.703,-76.7 h 708.74 c 42.3,0 76.7,34.41 76.7,76.7 v 312.76 c 0,42.3 -34.4,76.71 -76.7,76.71 z m 708.74,-473.21 h -708.74 c -46.172,0 -83.734,37.57 -83.734,83.74 v 312.76 c 0,46.18 37.562,83.74 83.734,83.74 h 708.74 c 46.18,0 83.74,-37.56 83.74,-83.74 v -312.76 c 0,-46.17 -37.56,-83.74 -83.74,-83.74"
         style="fill:#a37b90;fill-opacity:1;fill-rule:nonzero;stroke:none"
         id="path544" /><path
         d="M 1800.21,3287.25 H 931.031 c -1.945,0 -3.515,1.57 -3.515,3.51 0,1.95 1.57,3.52 3.515,3.52 h 869.179 c 1.94,0 3.52,-1.57 3.52,-3.52 0,-1.94 -1.58,-3.51 -3.52,-3.51"
         style="fill:#a37b90;fill-opacity:1;fill-rule:nonzero;stroke:none"
         id="path546" /><path
         d="m 996.207,3313.91 c -0.937,0 -1.875,0.38 -2.57,1.12 -1.321,1.42 -1.25,3.64 0.168,4.97 l 42.795,40 c 1.41,1.33 3.64,1.24 4.97,-0.17 1.32,-1.42 1.25,-3.64 -0.17,-4.97 l -42.791,-40 c -0.679,-0.63 -1.543,-0.95 -2.402,-0.95"
         style="fill:#a37b90;fill-opacity:1;fill-rule:nonzero;stroke:none"
         id="path548" /><path
         d="m 1039,3313.91 c -0.86,0 -1.72,0.32 -2.4,0.95 l -42.795,40 c -1.418,1.33 -1.489,3.55 -0.168,4.97 1.336,1.41 3.554,1.49 4.972,0.17 l 42.791,-40 c 1.42,-1.33 1.49,-3.55 0.17,-4.97 -0.7,-0.74 -1.63,-1.12 -2.57,-1.12"
         style="fill:#a37b90;fill-opacity:1;fill-rule:nonzero;stroke:none"
         id="path550" /><path
         d="m 6603.21,3200.91 c -34.13,0 -61.89,-27.77 -61.89,-61.9 v -255.04 c 0,-34.13 27.76,-61.89 61.89,-61.89 h 577.91 c 34.13,0 61.91,27.76 61.91,61.89 v 255.04 c 0,34.13 -27.78,61.9 -61.91,61.9 z m 577.91,-385.86 h -577.91 c -38,0 -68.92,30.92 -68.92,68.92 v 255.04 c 0,38 30.92,68.93 68.92,68.93 h 577.91 c 38.01,0 68.94,-30.93 68.94,-68.93 v -255.04 c 0,-38 -30.93,-68.92 -68.94,-68.92"
         style="fill:#40507f;fill-opacity:1;fill-rule:nonzero;stroke:none"
         id="path552" /><path
         d="M 7246.54,3116.5 H 6537.8 c -1.94,0 -3.51,1.57 -3.51,3.51 0,1.95 1.57,3.52 3.51,3.52 h 708.74 c 1.95,0 3.52,-1.57 3.52,-3.52 0,-1.94 -1.57,-3.51 -3.52,-3.51"
         style="fill:#40507f;fill-opacity:1;fill-rule:nonzero;stroke:none"
         id="path554" /><path
         d="m 7079.76,3164.84 c 0,-7.98 -6.47,-14.45 -14.45,-14.45 -7.98,0 -14.44,6.47 -14.44,14.45 0,7.97 6.46,14.44 14.44,14.44 7.98,0 14.45,-6.47 14.45,-14.44"
         style="fill:#40507f;fill-opacity:1;fill-rule:nonzero;stroke:none"
         id="path556" /><path
         d="m 7134.72,3164.84 c 0,-7.98 -6.48,-14.45 -14.46,-14.45 -7.96,0 -14.44,6.47 -14.44,14.45 0,7.97 6.48,14.44 14.44,14.44 7.98,0 14.46,-6.47 14.46,-14.44"
         style="fill:#40507f;fill-opacity:1;fill-rule:nonzero;stroke:none"
         id="path558" /><path
         d="m 7192.07,3164.84 c 0,-7.98 -6.47,-14.45 -14.44,-14.45 -7.98,0 -14.46,6.47 -14.46,14.45 0,7.97 6.48,14.44 14.46,14.44 7.97,0 14.44,-6.47 14.44,-14.44"
         style="fill:#40507f;fill-opacity:1;fill-rule:nonzero;stroke:none"
         id="path560" /></g></g></svg>
